<svg xmlns="http://www.w3.org/2000/svg" xmlns:xlink="http://www.w3.org/1999/xlink" width="195" height="195" viewBox="0 0 195 195">
  <defs>
    <radialGradient id="radial-gradient" cx="0.5" cy="0.5" r="0.5" gradientUnits="objectBoundingBox">
      <stop offset="0" stop-color="#fff"/>
      <stop offset="1" stop-color="#e0e0e0"/>
    </radialGradient>
    <filter id="_21" x="0" y="0" width="195" height="195" filterUnits="userSpaceOnUse">
      <feOffset dy="3" input="SourceAlpha"/>
      <feGaussianBlur stdDeviation="3" result="blur"/>
      <feFlood flood-opacity="0.161"/>
      <feComposite operator="in" in2="blur"/>
      <feComposite in="SourceGraphic"/>
    </filter>
    <clipPath id="clip-path">
      <path id="path5064" d="M0-682.665H84.6v84.6H0Z" transform="translate(0 682.665)"/>
    </clipPath>
  </defs>
  <g id="Grupo_1029417" data-name="Grupo 1029417" transform="translate(4706 10554)">
    <g transform="matrix(1, 0, 0, 1, -4706, -10554)" filter="url(#_21)">
      <g id="_21-2" data-name="21" transform="translate(9 6)" stroke="#fff" stroke-width="3" fill="url(#radial-gradient)">
        <circle cx="88.5" cy="88.5" r="88.5" stroke="none"/>
        <circle cx="88.5" cy="88.5" r="87" fill="none"/>
      </g>
    </g>
    <g id="g5058" transform="translate(-4650.3 -9818.635)">
      <g id="g5060" transform="translate(0 -682.665)">
        <g id="g5062" clip-path="url(#clip-path)">
          <g id="g5068" transform="translate(3.977 66.936)">
            <path id="path5070" d="M0,0V10.95a5.475,5.475,0,0,0,5.475,5.475h65.7a5.475,5.475,0,0,0,5.475-5.475V0Z" fill="#d5e8fe"/>
          </g>
          <g id="g5072" transform="translate(71.348 66.936)">
            <path id="path5074" d="M-38.7,0V10.95a5.475,5.475,0,0,1-5.475,5.475h3.8A5.475,5.475,0,0,0-34.9,10.95V0Z" transform="translate(44.176)" fill="#b5dbff"/>
          </g>
          <g id="g5076" transform="translate(3.977 23.138)">
            <path id="path5078" d="M0,0V49.273a5.475,5.475,0,0,0,5.475,5.475h65.7a5.475,5.475,0,0,0,5.475-5.475V0Z" fill="#edf5ff"/>
          </g>
          <g id="g5080" transform="translate(71.348 23.138)">
            <path id="path5082" d="M-38.7,0V49.273a5.475,5.475,0,0,1-5.475,5.475h3.8A5.475,5.475,0,0,0-34.9,49.273V0Z" transform="translate(44.176)" fill="#d5e8fe"/>
          </g>
          <g id="g5084" transform="translate(3.977 6.714)">
            <path id="path5086" d="M-541.839-135.461v-13.687a5.475,5.475,0,0,0-5.474-5.475h-65.7a5.475,5.475,0,0,0-5.474,5.475v13.687Z" transform="translate(618.485 154.622)" fill="#fe502d"/>
          </g>
          <g id="g5088" transform="translate(20.401 1.239)">
            <path id="path5090" d="M0-77.406a2.737,2.737,0,0,0,2.737,2.737,2.737,2.737,0,0,0,2.737-2.737v-8.212a2.737,2.737,0,0,0-2.737-2.737A2.737,2.737,0,0,0,0-85.618Z" transform="translate(0 88.356)" fill="#596c76"/>
          </g>
          <g id="g5092" transform="translate(58.724 1.239)">
            <path id="path5094" d="M0-77.406a2.737,2.737,0,0,0,2.737,2.737,2.737,2.737,0,0,0,2.737-2.737v-8.212a2.737,2.737,0,0,0-2.737-2.737A2.737,2.737,0,0,0,0-85.618Z" transform="translate(0 88.356)" fill="#596c76"/>
          </g>
          <g id="g5096" transform="translate(71.348 6.714)">
            <path id="path5098" d="M-26.866,0h-3.8a5.474,5.474,0,0,1,5.475,5.475V19.162h3.8V5.475A5.474,5.474,0,0,0-26.866,0" transform="translate(30.667)" fill="#ea401e"/>
          </g>
          <g id="g5100" transform="translate(23.138 34.088)">
            <path id="path5102" d="M-145.136-72.568A10.277,10.277,0,0,0-155.4-82.833a10.277,10.277,0,0,0-10.265,10.265,2.737,2.737,0,0,0,2.737,2.737,2.737,2.737,0,0,0,2.738-2.737,4.8,4.8,0,0,1,4.79-4.79,4.8,4.8,0,0,1,4.79,4.79,4.8,4.8,0,0,1-4.79,4.79,2.737,2.737,0,0,0-2.737,2.737A2.737,2.737,0,0,0-155.4-62.3a4.8,4.8,0,0,1,4.79,4.79,4.8,4.8,0,0,1-4.79,4.79,4.8,4.8,0,0,1-4.79-4.79,2.737,2.737,0,0,0-2.738-2.737,2.737,2.737,0,0,0-2.737,2.737A10.277,10.277,0,0,0-155.4-47.247a10.277,10.277,0,0,0,10.265-10.265,10.237,10.237,0,0,0-3.3-7.528,10.238,10.238,0,0,0,3.3-7.528" transform="translate(165.666 82.833)" fill="#596c76"/>
          </g>
          <g id="g5104" transform="translate(47.561 34.088)">
            <path id="path5106" d="M-65.46-1.474a2.737,2.737,0,0,0-2.983.593l-5.475,5.475a2.737,2.737,0,0,0,0,3.871,2.737,2.737,0,0,0,3.871,0l.8-.8v23.5A2.737,2.737,0,0,0-66.507,33.9a2.737,2.737,0,0,0,2.737-2.737V1.055a2.738,2.738,0,0,0-1.69-2.529" transform="translate(74.719 1.683)" fill="#596c76"/>
          </g>
          <g id="g5108" transform="translate(21.899 32.848)">
            <path id="path5110" d="M-164.162-92.833a11.517,11.517,0,0,1,11.5,11.5,11.537,11.537,0,0,1-2.814,7.528,11.536,11.536,0,0,1,2.814,7.528,11.517,11.517,0,0,1-11.5,11.5,11.517,11.517,0,0,1-11.5-11.5,3.981,3.981,0,0,1,3.977-3.977,3.981,3.981,0,0,1,3.977,3.977,3.555,3.555,0,0,0,3.551,3.551,3.555,3.555,0,0,0,3.551-3.551,3.555,3.555,0,0,0-3.551-3.551,3.981,3.981,0,0,1-3.977-3.977,3.981,3.981,0,0,1,3.977-3.977,3.555,3.555,0,0,0,3.551-3.551,3.555,3.555,0,0,0-3.551-3.551,3.555,3.555,0,0,0-3.551,3.551,3.981,3.981,0,0,1-3.977,3.977,3.981,3.981,0,0,1-3.977-3.977A11.517,11.517,0,0,1-164.162-92.833Zm0,35.586a9.036,9.036,0,0,0,9.026-9.026,9.053,9.053,0,0,0-2.9-6.619,1.239,1.239,0,0,1-.4-.909,1.239,1.239,0,0,1,.4-.909,9.054,9.054,0,0,0,2.9-6.619,9.036,9.036,0,0,0-9.026-9.026,9.036,9.036,0,0,0-9.026,9.026,1.5,1.5,0,0,0,1.5,1.5,1.5,1.5,0,0,0,1.5-1.5,6.036,6.036,0,0,1,6.03-6.03,6.037,6.037,0,0,1,6.03,6.03,6.037,6.037,0,0,1-6.03,6.03,1.5,1.5,0,0,0-1.5,1.5,1.5,1.5,0,0,0,1.5,1.5,6.037,6.037,0,0,1,6.03,6.03,6.036,6.036,0,0,1-6.03,6.03,6.036,6.036,0,0,1-6.03-6.03,1.5,1.5,0,0,0-1.5-1.5,1.5,1.5,0,0,0-1.5,1.5A9.036,9.036,0,0,0-164.162-57.247Z" transform="translate(175.666 92.833)"/>
          </g>
          <g id="g5112" transform="translate(46.321 32.848)">
            <path id="path5114" d="M-75.267-11.683a4.062,4.062,0,0,1,1.521.3,3.965,3.965,0,0,1,2.455,3.674V22.4a3.981,3.981,0,0,1-3.977,3.977A3.981,3.981,0,0,1-79.245,22.4V1.455a3.972,3.972,0,0,1-1.5.291A3.951,3.951,0,0,1-83.555.58a3.95,3.95,0,0,1-1.165-2.812,3.95,3.95,0,0,1,1.165-2.812l5.475-5.475A3.952,3.952,0,0,1-75.267-11.683Zm0,35.586a1.5,1.5,0,0,0,1.5-1.5V-7.706a1.494,1.494,0,0,0-.925-1.384,1.488,1.488,0,0,0-.573-.114,1.49,1.49,0,0,0-1.06.439L-81.8-3.291a1.5,1.5,0,0,0,0,2.119,1.488,1.488,0,0,0,1.059.439,1.488,1.488,0,0,0,1.059-.439l.8-.8a1.239,1.239,0,0,1,1.35-.269A1.239,1.239,0,0,1-76.766-1.1V22.4A1.5,1.5,0,0,0-75.268,23.9Z" transform="translate(84.719 11.683)"/>
          </g>
          <g id="g5116" transform="translate(2.738 5.475)">
            <path id="path5118" d="M-70.121,63.65h-65.7a6.721,6.721,0,0,1-6.714-6.714V-3.286A6.721,6.721,0,0,1-135.818-10h10.95a1.239,1.239,0,0,1,1.239,1.239,1.239,1.239,0,0,1-1.239,1.239h-10.95a4.24,4.24,0,0,0-4.235,4.235V56.936a4.24,4.24,0,0,0,4.235,4.235h65.7a4.24,4.24,0,0,0,4.235-4.235V-3.286a4.208,4.208,0,0,0-1.24-2.995,4.208,4.208,0,0,0-2.995-1.24H-81.07A1.239,1.239,0,0,1-82.31-8.761,1.239,1.239,0,0,1-81.07-10h10.95a6.67,6.67,0,0,1,4.747,1.966,6.67,6.67,0,0,1,1.966,4.747V56.936A6.721,6.721,0,0,1-70.121,63.65Z" transform="translate(142.532 10)"/>
          </g>
          <g id="g5120" transform="translate(24.636 5.475)">
            <path id="path5122" d="M-240.978-7.521h-32.848a1.239,1.239,0,0,1-1.239-1.239A1.239,1.239,0,0,1-273.827-10h32.848a1.239,1.239,0,0,1,1.239,1.239A1.239,1.239,0,0,1-240.978-7.521Z" transform="translate(275.066 10)"/>
          </g>
          <g id="g5124" transform="translate(21.64 65.697)">
            <path id="path5126" d="M43.508-123.63H-8.761A1.239,1.239,0,0,1-10-124.87a1.239,1.239,0,0,1,1.239-1.239H43.508a4.24,4.24,0,0,0,4.235-4.235v-10.95a1.239,1.239,0,0,1,1.239-1.239,1.239,1.239,0,0,1,1.239,1.239v10.95A6.721,6.721,0,0,1,43.508-123.63Z" transform="translate(10 142.533)"/>
          </g>
          <g id="g5128" transform="translate(2.737 65.697)">
            <path id="path5130" d="M5.185,8.9H-3.286A6.721,6.721,0,0,1-10,2.189V-8.761A1.239,1.239,0,0,1-8.761-10,1.239,1.239,0,0,1-7.521-8.761V2.189A4.24,4.24,0,0,0-3.286,6.424H5.185a1.239,1.239,0,0,1,0,2.478Z" transform="translate(10 10)"/>
          </g>
          <g id="g5132" transform="translate(19.162 0)">
            <path id="path5134" d="M-6.023-82.19A3.981,3.981,0,0,1-10-86.167v-8.212a3.981,3.981,0,0,1,3.977-3.977,3.981,3.981,0,0,1,3.977,3.977v8.212A3.981,3.981,0,0,1-6.023-82.19Zm0-13.687a1.5,1.5,0,0,0-1.5,1.5v8.212a1.5,1.5,0,0,0,1.5,1.5,1.5,1.5,0,0,0,1.5-1.5v-8.212A1.5,1.5,0,0,0-6.023-95.877Z" transform="translate(10 98.356)"/>
          </g>
          <g id="g5136" transform="translate(57.485 0)">
            <path id="path5138" d="M-6.023-82.19A3.981,3.981,0,0,1-10-86.167v-8.212a3.981,3.981,0,0,1,3.977-3.977,3.981,3.981,0,0,1,3.977,3.977v8.212A3.981,3.981,0,0,1-6.023-82.19Zm0-13.687a1.5,1.5,0,0,0-1.5,1.5v8.212a1.5,1.5,0,0,0,1.5,1.5,1.5,1.5,0,0,0,1.5-1.5v-8.212A1.5,1.5,0,0,0-6.023-95.877Z" transform="translate(10 98.356)"/>
          </g>
          <g id="g5140" transform="translate(16.424 10.949)">
            <path id="path5142" d="M-28.111-7.521h-2.737a1.239,1.239,0,0,1-1.239-1.239A1.239,1.239,0,0,1-30.849-10h2.737a1.239,1.239,0,0,1,1.239,1.239A1.239,1.239,0,0,1-28.111-7.521Z" transform="translate(32.088 10)"/>
          </g>
          <g id="g5144" transform="translate(24.636 10.949)">
            <path id="path5146" d="M-6.023-7.521H-8.761A1.239,1.239,0,0,1-10-8.761,1.239,1.239,0,0,1-8.761-10h2.737A1.239,1.239,0,0,1-4.784-8.761,1.239,1.239,0,0,1-6.023-7.521Z" transform="translate(10 10)"/>
          </g>
          <g id="g5148" transform="translate(54.747 10.949)">
            <path id="path5150" d="M-28.113-7.521H-30.85a1.239,1.239,0,0,1-1.239-1.239A1.239,1.239,0,0,1-30.85-10h2.737a1.239,1.239,0,0,1,1.239,1.239A1.239,1.239,0,0,1-28.113-7.521Z" transform="translate(32.089 10)"/>
          </g>
          <g id="g5152" transform="translate(62.959 10.949)">
            <path id="path5154" d="M-6.023-7.521H-8.761A1.239,1.239,0,0,1-10-8.761,1.239,1.239,0,0,1-8.761-10h2.737A1.239,1.239,0,0,1-4.784-8.761,1.239,1.239,0,0,1-6.023-7.521Z" transform="translate(10 10)"/>
          </g>
          <g id="g5156" transform="translate(2.737 24.636)">
            <path id="path5158" d="M67.885-7.521H-8.761A1.239,1.239,0,0,1-10-8.761,1.239,1.239,0,0,1-8.761-10H67.885a1.239,1.239,0,0,1,1.239,1.239A1.239,1.239,0,0,1,67.885-7.521Z" transform="translate(10 10)"/>
          </g>
          <g id="g5160" transform="translate(62.701 19.162)">
            <path id="path5162" d="M7.922-7.521H-8.761A1.239,1.239,0,0,1-10-8.761,1.239,1.239,0,0,1-8.761-10H7.922A1.239,1.239,0,0,1,9.162-8.761,1.239,1.239,0,0,1,7.922-7.521Z" transform="translate(10 10)"/>
          </g>
          <g id="g5164" transform="translate(2.737 19.162)">
            <path id="path5166" d="M46.245-7.521H-8.761A1.239,1.239,0,0,1-10-8.761,1.239,1.239,0,0,1-8.761-10H46.245a1.239,1.239,0,0,1,1.239,1.239A1.239,1.239,0,0,1,46.245-7.521Z" transform="translate(10 10)"/>
          </g>
        </g>
      </g>
    </g>
  </g>
</svg>
