<svg xmlns="http://www.w3.org/2000/svg" xmlns:xlink="http://www.w3.org/1999/xlink" width="195" height="195" viewBox="0 0 195 195">
  <defs>
    <radialGradient id="radial-gradient" cx="0.5" cy="0.5" r="0.5" gradientUnits="objectBoundingBox">
      <stop offset="0" stop-color="#fff"/>
      <stop offset="1" stop-color="#e0e0e0"/>
    </radialGradient>
    <filter id="_21" x="0" y="0" width="195" height="195" filterUnits="userSpaceOnUse">
      <feOffset dy="3" input="SourceAlpha"/>
      <feGaussianBlur stdDeviation="3" result="blur"/>
      <feFlood flood-opacity="0.161"/>
      <feComposite operator="in" in2="blur"/>
      <feComposite in="SourceGraphic"/>
    </filter>
  </defs>
  <g id="Grupo_1029412" data-name="Grupo 1029412" transform="translate(-335 -713)">
    <g transform="matrix(1, 0, 0, 1, 335, 713)" filter="url(#_21)">
      <g id="_21-2" data-name="21" transform="translate(9 6)" stroke="#fff" stroke-width="3" fill="url(#radial-gradient)">
        <circle cx="88.5" cy="88.5" r="88.5" stroke="none"/>
        <circle cx="88.5" cy="88.5" r="87" fill="none"/>
      </g>
    </g>
    <g id="_027-forecast" data-name="027-forecast" transform="translate(378.034 757.001)">
      <g id="Grupo_1029402" data-name="Grupo 1029402" transform="translate(2.497 1.53)">
        <path id="Trazado_776853" data-name="Trazado 776853" d="M38.505,12.59a5.091,5.091,0,0,0-5.09-5.09H96.157a5.091,5.091,0,0,1,5.09,5.09V92.336a1.877,1.877,0,0,1-1.877,1.877H40.382a1.877,1.877,0,0,1-1.877-1.877Z" transform="translate(-28.323 -7.5)" fill="#e5eef9"/>
        <path id="Trazado_776854" data-name="Trazado 776854" d="M320.92,7.5h-5.1a5.091,5.091,0,0,1,5.09,5.09V92.336a1.877,1.877,0,0,1-1.877,1.877h5.1a1.877,1.877,0,0,0,1.877-1.877V12.59a5.091,5.091,0,0,0-5.09-5.09Z" transform="translate(-253.085 -7.5)" fill="#c4e2ff"/>
        <path id="Trazado_776855" data-name="Trazado 776855" d="M8.466,12.591A5.091,5.091,0,0,1,13.46,7.5a5.183,5.183,0,0,1,5.188,5.2V37.07H10.343a1.877,1.877,0,0,1-1.877-1.877Z" transform="translate(-8.466 -7.501)" fill="#c4e2ff"/>
        <path id="Trazado_776856" data-name="Trazado 776856" d="M330.561,465.671H311.773a2.041,2.041,0,0,0-2.041,2.041v3.843a2.041,2.041,0,0,0,2.041,2.041h18.788a2.041,2.041,0,0,0,2.041-2.041v-3.843A2.041,2.041,0,0,0,330.561,465.671Z" transform="translate(-248.242 -372.156)" fill="#fee903"/>
        <path id="Trazado_776857" data-name="Trazado 776857" d="M330.561,426.842H311.773a2.041,2.041,0,0,0-2.041,2.041v3.843a2.041,2.041,0,0,0,2.041,2.041h18.788a2.041,2.041,0,0,0,2.041-2.041v-3.843A2.041,2.041,0,0,0,330.561,426.842Z" transform="translate(-248.242 -341.252)" fill="#fee903"/>
        <path id="Trazado_776858" data-name="Trazado 776858" d="M330.561,426.842H328.52v4.046a1.021,1.021,0,0,1-1.021,1.021H309.732v.816a2.041,2.041,0,0,0,2.041,2.041h18.788a2.041,2.041,0,0,0,2.041-2.041v-3.843A2.041,2.041,0,0,0,330.561,426.842Z" transform="translate(-248.242 -341.252)" fill="#fac600"/>
        <path id="Trazado_776859" data-name="Trazado 776859" d="M330.561,465.671H328.52v4.046a1.021,1.021,0,0,1-1.021,1.021H309.732v.816a2.041,2.041,0,0,0,2.041,2.041h18.788a2.041,2.041,0,0,0,2.041-2.041v-3.843A2.041,2.041,0,0,0,330.561,465.671Z" transform="translate(-248.242 -372.156)" fill="#fac600"/>
        <path id="Trazado_776860" data-name="Trazado 776860" d="M330.561,388.013H311.773a2.041,2.041,0,0,0-2.041,2.041V393.9a2.041,2.041,0,0,0,2.041,2.041h18.788A2.041,2.041,0,0,0,332.6,393.9v-3.843A2.041,2.041,0,0,0,330.561,388.013Z" transform="translate(-248.242 -310.348)" fill="#fee903"/>
        <path id="Trazado_776861" data-name="Trazado 776861" d="M330.561,388.013H328.52v4.046a1.021,1.021,0,0,1-1.021,1.021H309.732v.816a2.041,2.041,0,0,0,2.041,2.041h18.788A2.041,2.041,0,0,0,332.6,393.9v-3.843A2.041,2.041,0,0,0,330.561,388.013Z" transform="translate(-248.242 -310.348)" fill="#fac600"/>
        <ellipse id="Elipse_8839" data-name="Elipse 8839" cx="9.831" cy="9.83" rx="9.831" ry="9.83" transform="translate(77.303 17.304) rotate(-45)" fill="#ffca00"/>
        <path id="Trazado_776862" data-name="Trazado 776862" d="M128.793,102.8v13.028h6.524V102.8a1.021,1.021,0,0,0-1.021-1.021h-4.483A1.021,1.021,0,0,0,128.793,102.8Z" transform="translate(-104.234 -82.539)" fill="#ffca00"/>
        <path id="Trazado_776863" data-name="Trazado 776863" d="M196.073,127.156v8.058H202.6v-8.058a1.021,1.021,0,0,0-1.021-1.021h-4.483A1.021,1.021,0,0,0,196.073,127.156Z" transform="translate(-157.781 -101.921)" fill="#fe502d"/>
        <path id="Trazado_776864" data-name="Trazado 776864" d="M263.354,61.692v21.42h6.524V61.692a1.021,1.021,0,0,0-1.021-1.021h-4.483A1.021,1.021,0,0,0,263.354,61.692Z" transform="translate(-211.33 -49.819)" fill="#2d54fe"/>
        <path id="Trazado_776865" data-name="Trazado 776865" d="M334.375,268.025a2.962,2.962,0,0,0-3.3,2.572l-.4,3.19a.182.182,0,0,1-.31.106l-9.946-9.946a2.959,2.959,0,0,0-4.185,0l-8.552,8.552a.565.565,0,0,1-.8,0l-6.292-6.292a3.015,3.015,0,0,0-4.141-.158,2.959,2.959,0,0,0-.1,4.284l8.844,8.844a2.959,2.959,0,0,0,4.185,0l8.552-8.552a.565.565,0,0,1,.8,0l7.454,7.454a.182.182,0,0,1-.106.31l-3.108.386A3.013,3.013,0,0,0,320.3,282a2.96,2.96,0,0,0,2.943,2.682,3.01,3.01,0,0,0,.369-.023l9.569-1.19a2.96,2.96,0,0,0,2.572-2.572l1.19-9.57A2.959,2.959,0,0,0,334.375,268.025Z" transform="translate(-236.9 -210.915)" fill="#fe502d"/>
      </g>
      <g id="Grupo_1029403" data-name="Grupo 1029403" transform="translate(0.966 -0.001)">
        <path id="Trazado_776866" data-name="Trazado 776866" d="M93.387,231.066a3.588,3.588,0,0,1-2.637-1.1,1.531,1.531,0,1,0-2.269,2.056,6.422,6.422,0,0,0,3.118,1.874v.851a1.531,1.531,0,0,0,3.062,0v-.769a4.468,4.468,0,0,0,3.456-3.456c.282-1.58-.426-3.64-3.26-4.686l-.48-.177a19.039,19.039,0,0,1-2.466-1.008.375.375,0,0,1-.186-.424,1,1,0,0,1,.771-.816,3.43,3.43,0,0,1,2.815.656,1.531,1.531,0,0,0,1.961-2.351,7.09,7.09,0,0,0-2.61-1.285v-.8a1.531,1.531,0,1,0-3.062,0v.858a4.063,4.063,0,0,0-2.92,3.428,3.427,3.427,0,0,0,1.767,3.428,21,21,0,0,0,2.873,1.193l.478.176c.337.124,1.429.584,1.305,1.275A1.673,1.673,0,0,1,93.387,231.066Z" transform="translate(-70.303 -173.581)"/>
        <path id="Trazado_776867" data-name="Trazado 776867" d="M156.992,240.724h2.259a1.531,1.531,0,0,0,0-3.062h-2.259a1.531,1.531,0,0,0,0,3.062Z" transform="translate(-123.928 -189.154)"/>
        <path id="Trazado_776868" data-name="Trazado 776868" d="M166.514,274.136a1.531,1.531,0,0,0-1.531-1.531h-7.991a1.531,1.531,0,1,0,0,3.062h7.991A1.531,1.531,0,0,0,166.514,274.136Z" transform="translate(-123.929 -216.965)"/>
        <path id="Trazado_776869" data-name="Trazado 776869" d="M48.45,86.712H14.556a.347.347,0,0,1-.346-.346V6.621a6.583,6.583,0,0,0-1.04-3.559H70.331a3.563,3.563,0,0,1,3.559,3.559V28.46a1.531,1.531,0,1,0,3.062,0V6.621A6.628,6.628,0,0,0,70.331,0C70.1,0,7.556,0,7.462,0a6.654,6.654,0,0,0-6.5,6.62v3.966a1.531,1.531,0,1,0,3.062,0V6.621A3.577,3.577,0,0,1,7.52,3.062,3.5,3.5,0,0,1,10.027,4.08a3.747,3.747,0,0,1,1.122,2.656V29.569H4.374a.347.347,0,0,1-.346-.346V17.731a1.531,1.531,0,1,0-3.062,0V29.223a3.412,3.412,0,0,0,3.408,3.408h6.775V86.366a3.411,3.411,0,0,0,3.408,3.408H48.45a1.531,1.531,0,0,0,0-3.062Z" transform="translate(-0.966 0.001)"/>
        <path id="Trazado_776870" data-name="Trazado 776870" d="M142.16,77.142a1.531,1.531,0,0,0-1.531-1.531h-4.051V55.722a2.554,2.554,0,0,0-2.551-2.551h-4.483a2.554,2.554,0,0,0-2.551,2.551V75.611h-4.147V69.084a2.554,2.554,0,0,0-2.551-2.551h-4.483a2.554,2.554,0,0,0-2.551,2.551v6.527h-4.147v-11.5a2.554,2.554,0,0,0-2.551-2.551h-4.483a2.554,2.554,0,0,0-2.551,2.551v11.5h-2.52V57.122a1.531,1.531,0,1,0-3.062,0v19A2.554,2.554,0,0,0,96.5,78.673h44.131A1.531,1.531,0,0,0,142.16,77.142ZM130.054,56.233h3.462V75.611h-3.462ZM116.321,69.594h3.462v6.017h-3.462Zm-13.732-4.97h3.462V75.611h-3.462Z" transform="translate(-74.968 -42.318)"/>
        <path id="Trazado_776871" data-name="Trazado 776871" d="M89.615,375.134h13.752a1.531,1.531,0,1,0,0-3.062H89.615a1.531,1.531,0,0,0,0,3.062Z" transform="translate(-70.303 -296.13)"/>
        <path id="Trazado_776872" data-name="Trazado 776872" d="M449.4,108.045a1.531,1.531,0,0,0,1.531-1.531v-.2a1.531,1.531,0,0,0-3.062,0v.2A1.531,1.531,0,0,0,449.4,108.045Z" transform="translate(-356.655 -83.393)"/>
        <path id="Trazado_776873" data-name="Trazado 776873" d="M449.4,69.827a1.531,1.531,0,0,0,1.531-1.531V65.235a1.531,1.531,0,0,0-3.062,0V68.3A1.531,1.531,0,0,0,449.4,69.827Z" transform="translate(-356.655 -50.702)"/>
        <path id="Trazado_776874" data-name="Trazado 776874" d="M411.068,59.3a11.361,11.361,0,1,0-11.361-11.361A11.374,11.374,0,0,0,411.068,59.3Zm0-19.661a8.3,8.3,0,1,1-8.3,8.3,8.309,8.309,0,0,1,8.3-8.3Z" transform="translate(-318.322 -29.112)"/>
        <path id="Trazado_776875" data-name="Trazado 776875" d="M388.826,142.69l.707-.707a1.531,1.531,0,1,0-2.165-2.165l-.707.707a1.531,1.531,0,1,0,2.165,2.165Z" transform="translate(-307.582 -110.923)"/>
        <path id="Trazado_776876" data-name="Trazado 776876" d="M360.138,167.047l-.707.707a1.531,1.531,0,0,0,2.165,2.165l.707-.707a1.531,1.531,0,0,0-2.165-2.165Z" transform="translate(-285.909 -132.595)"/>
        <path id="Trazado_776877" data-name="Trazado 776877" d="M332.908,194.276l-.707.707a1.531,1.531,0,0,0,2.165,2.165l.707-.707a1.531,1.531,0,0,0-2.165-2.165Z" transform="translate(-264.237 -154.267)"/>
        <path id="Trazado_776878" data-name="Trazado 776878" d="M305.679,221.506l-.707.707a1.531,1.531,0,0,0,2.165,2.165l.707-.707a1.531,1.531,0,1,0-2.165-2.165Z" transform="translate(-242.566 -175.939)"/>
        <path id="Trazado_776879" data-name="Trazado 776879" d="M278.449,248.735l-.707.707a1.531,1.531,0,0,0,2.165,2.165l.707-.707a1.531,1.531,0,1,0-2.165-2.165Z" transform="translate(-220.893 -197.61)"/>
        <path id="Trazado_776880" data-name="Trazado 776880" d="M253.384,278.13a1.531,1.531,0,1,0-2.165-2.165l-.708.708a1.531,1.531,0,0,0,2.165,2.165Z" transform="translate(-199.221 -219.282)"/>
        <path id="Trazado_776881" data-name="Trazado 776881" d="M223.99,303.194l-.707.708a1.531,1.531,0,0,0,2.165,2.165l.707-.708a1.531,1.531,0,0,0-2.165-2.165Z" transform="translate(-177.55 -240.953)"/>
        <path id="Trazado_776882" data-name="Trazado 776882" d="M307.209,220.63a4.5,4.5,0,0,0-5.01,3.9l-.056.451-7.994-7.994a4.491,4.491,0,0,0-6.351,0l-3.8,3.8V206.971a1.531,1.531,0,1,0-3.062,0v16.877l-1.01,1.01-5.609-5.609a4.491,4.491,0,1,0-6.41,6.291l8.844,8.843a4.46,4.46,0,0,0,3.175,1.315,4.517,4.517,0,0,0,1.01-.118v5.593h-7.864a3.576,3.576,0,0,0-3.572,3.572v3.843a3.546,3.546,0,0,0,.4,1.632h-7.261a1.531,1.531,0,1,0,0,3.062H269.5v3.231a3.549,3.549,0,0,0,.645,2.041,3.549,3.549,0,0,0-.645,2.041v3.843a3.576,3.576,0,0,0,3.572,3.572h18.788a3.576,3.576,0,0,0,3.572-3.572V260.6a3.549,3.549,0,0,0-.645-2.041,3.549,3.549,0,0,0,.645-2.041V252.67a3.549,3.549,0,0,0-.645-2.041,3.549,3.549,0,0,0,.645-2.041v-3.843a3.576,3.576,0,0,0-3.572-3.572H284v-7.687l6.972-6.972,4.819,4.819-.369.046a4.564,4.564,0,0,0-4,4.889,4.475,4.475,0,0,0,5.024,4.033l9.569-1.19a4.486,4.486,0,0,0,3.9-3.9l1.19-9.57a4.5,4.5,0,0,0-3.9-5.01Zm-15.345,31.53a.511.511,0,0,1,.51.51v3.843a.511.511,0,0,1-.51.51H273.076a.511.511,0,0,1-.51-.51V252.67a.511.511,0,0,1,.51-.51Zm.51,12.279a.511.511,0,0,1-.51.51H273.076a.511.511,0,0,1-.51-.51V260.6a.511.511,0,0,1,.51-.51h18.788a.511.511,0,0,1,.51.51Zm0-19.693v3.843a.511.511,0,0,1-.51.51H273.076a.511.511,0,0,1-.51-.51v-3.843a.511.511,0,0,1,.51-.51h18.788A.511.511,0,0,1,292.374,244.745Zm15.7-19.483-1.19,9.569a1.428,1.428,0,0,1-1.242,1.242l-9.569,1.19a1.424,1.424,0,0,1-1.6-1.285,1.482,1.482,0,0,1,1.328-1.561l3.106-.386a1.713,1.713,0,0,0,1-2.911l-7.454-7.454a2.1,2.1,0,0,0-2.964,0l-8.552,8.552a1.428,1.428,0,0,1-2.02,0l-8.844-8.844a1.428,1.428,0,0,1,.052-2.069,1.489,1.489,0,0,1,2.028.108l6.292,6.292a2.1,2.1,0,0,0,2.964,0l8.552-8.552a1.428,1.428,0,0,1,2.02,0l9.946,9.946a1.713,1.713,0,0,0,2.911-1l.4-3.19a1.429,1.429,0,1,1,2.836.352Z" transform="translate(-208.014 -163.509)"/>
      </g>
    </g>
  </g>
</svg>
