<svg xmlns="http://www.w3.org/2000/svg" xmlns:xlink="http://www.w3.org/1999/xlink" width="195" height="195" viewBox="0 0 195 195">
  <defs>
    <radialGradient id="radial-gradient" cx="0.5" cy="0.5" r="0.5" gradientUnits="objectBoundingBox">
      <stop offset="0" stop-color="#fff"/>
      <stop offset="1" stop-color="#e0e0e0"/>
    </radialGradient>
    <filter id="_21" x="0" y="0" width="195" height="195" filterUnits="userSpaceOnUse">
      <feOffset dy="3" input="SourceAlpha"/>
      <feGaussianBlur stdDeviation="3" result="blur"/>
      <feFlood flood-opacity="0.161"/>
      <feComposite operator="in" in2="blur"/>
      <feComposite in="SourceGraphic"/>
    </filter>
  </defs>
  <g id="Grupo_1029415" data-name="Grupo 1029415" transform="translate(5441 10554)">
    <g transform="matrix(1, 0, 0, 1, -5441, -10554)" filter="url(#_21)">
      <g id="_21-2" data-name="21" transform="translate(9 6)" stroke="#fff" stroke-width="3" fill="url(#radial-gradient)">
        <circle cx="88.5" cy="88.5" r="88.5" stroke="none"/>
        <circle cx="88.5" cy="88.5" r="87" fill="none"/>
      </g>
    </g>
    <g id="_008-planning" data-name="008-planning" transform="translate(-5415.05 -10511)">
      <g id="Grupo_1029407" data-name="Grupo 1029407" transform="translate(26.571 1.521)">
        <path id="Trazado_776897" data-name="Trazado 776897" d="M49.129,7.5H42.321a9.769,9.769,0,0,0-9.769,9.769V86.09a1.7,1.7,0,0,0,1.7,1.7H75.141V7.5Z" transform="translate(-32.552 -7.5)" fill="#596c76"/>
        <path id="Trazado_776898" data-name="Trazado 776898" d="M75.784,56.441v80.848a1.688,1.688,0,0,0,1.688,1.688h61.072a1.688,1.688,0,0,0,1.689-1.688V56.441a1.689,1.689,0,0,0-1.689-1.689H77.472A1.688,1.688,0,0,0,75.784,56.441Z" transform="translate(-67.019 -45.172)" fill="#e5eef9"/>
        <path id="Trazado_776899" data-name="Trazado 776899" d="M363.01,54.752h-5.677a1.689,1.689,0,0,1,1.689,1.689v80.848a1.688,1.688,0,0,1-1.689,1.688h5.677a1.688,1.688,0,0,0,1.688-1.688V56.441A1.689,1.689,0,0,0,363.01,54.752Z" transform="translate(-291.484 -45.172)" fill="#c4e2ff"/>
        <path id="Trazado_776900" data-name="Trazado 776900" d="M131.833,54.752V61.1H85.082A7.972,7.972,0,0,1,76.9,55.6a1.682,1.682,0,0,1,1.463-.85h53.475Z" transform="translate(-67.905 -45.172)" fill="#465a61"/>
        <path id="Trazado_776901" data-name="Trazado 776901" d="M177.811,15.7a8.006,8.006,0,0,1-7.371,7.723H114.912a7.974,7.974,0,0,0-.6-15.925h55.529a7.972,7.972,0,0,1,7.97,8.2Z" transform="translate(-97.735 -7.5)" fill="#2d54fe"/>
        <path id="Trazado_776902" data-name="Trazado 776902" d="M365.869,7.5h-5.677a7.974,7.974,0,0,1,.6,15.925h5.677a7.974,7.974,0,0,0-.6-15.925Z" transform="translate(-293.763 -7.5)" fill="#2444cf"/>
        <path id="Trazado_776903" data-name="Trazado 776903" d="M328.575,307.6l-3.309-4.416-3.309,4.416c-6.166,3.808-14.084,15.99-14.084,23.574,0,9.606,7.787,12.827,17.393,12.827s17.393-3.221,17.393-12.827C342.659,323.585,334.742,311.4,328.575,307.6Z" transform="translate(-252.052 -243.23)" fill="#e19974"/>
        <path id="Trazado_776904" data-name="Trazado 776904" d="M387.419,307.6l-3.309-4.416-2.429,3.242.845,1.175c5.917,3.808,13.514,15.99,13.514,23.574,0,8.781-6.245,12.225-14.359,12.752q1.191.074,2.429.075c9.606,0,17.393-3.221,17.393-12.827,0-7.584-7.918-19.765-14.084-23.574Z" transform="translate(-310.895 -243.23)" fill="#dd7f66"/>
        <path id="Trazado_776905" data-name="Trazado 776905" d="M368.688,265.578a3.061,3.061,0,0,0-4.128-.879l-.044.027a.336.336,0,0,1-.431-.067l-.458-.533a3.61,3.61,0,0,0-5.473,0l-.458.533a.336.336,0,0,1-.431.067l-.044-.027a3.062,3.062,0,0,0-4.112,4.363l4.473,6.4H364.2l4.473-6.4A3.063,3.063,0,0,0,368.688,265.578Z" transform="translate(-287.675 -211.095)" fill="#e19974"/>
        <path id="Trazado_776906" data-name="Trazado 776906" d="M395.23,270.992a3.06,3.06,0,0,0-3.919-.993,3.17,3.17,0,0,1-.285,2.973l-5.178,7.9h4.893l4.473-6.4A3.061,3.061,0,0,0,395.23,270.992Z" transform="translate(-314.217 -216.509)" fill="#dd7f66"/>
        <path id="Trazado_776907" data-name="Trazado 776907" d="M144.32,133.344v5.384a1.014,1.014,0,0,0,1.014,1.014H156.67a1.014,1.014,0,0,0,1.014-1.014v-5.384a1.014,1.014,0,0,0-1.014-1.014H145.334A1.014,1.014,0,0,0,144.32,133.344Z" transform="translate(-121.659 -107.021)" fill="#2d54fe"/>
        <path id="Trazado_776908" data-name="Trazado 776908" d="M144.32,310.451v5.384a1.014,1.014,0,0,0,1.014,1.014H156.67a1.014,1.014,0,0,0,1.014-1.014v-5.384a1.014,1.014,0,0,0-1.014-1.014H145.334A1.014,1.014,0,0,0,144.32,310.451Z" transform="translate(-121.659 -248.22)" fill="#d2e1f1"/>
        <path id="Trazado_776909" data-name="Trazado 776909" d="M154.292,209.652l-4.649,4.649a1.014,1.014,0,0,0,0,1.434l4.649,4.649a1.014,1.014,0,0,0,1.434,0l4.649-4.649a1.014,1.014,0,0,0,0-1.434l-4.649-4.649A1.014,1.014,0,0,0,154.292,209.652Z" transform="translate(-125.666 -168.429)" fill="#ffca00"/>
        <path id="Trazado_776910" data-name="Trazado 776910" d="M246.442,222.424v4.41a1.014,1.014,0,0,0,1.014,1.014H255.1a1.014,1.014,0,0,0,1.014-1.014v-4.41a1.014,1.014,0,0,0-1.014-1.014h-7.648A1.014,1.014,0,0,0,246.442,222.424Z" transform="translate(-203.076 -178.04)" fill="#fe502d"/>
      </g>
      <g id="Grupo_1029408" data-name="Grupo 1029408" transform="translate(25.05 0)">
        <path id="Trazado_776911" data-name="Trazado 776911" d="M48.021,93.806h-11a.169.169,0,0,1-.168-.168V16.609a9.492,9.492,0,0,0,6.3,2.38l55.113-.022V32.892a1.521,1.521,0,1,0,3.041,0V18.614a9.593,9.593,0,0,0,6.861-8.847A9.493,9.493,0,0,0,98.677,0H36.341A11.3,11.3,0,0,0,25.05,11.291V80.11a3.227,3.227,0,0,0,3.224,3.224h5.541v10.3a3.213,3.213,0,0,0,3.21,3.21h11a1.521,1.521,0,0,0,0-3.041ZM43.637,15.93A6.451,6.451,0,0,1,37.5,12.621H48.778A6.48,6.48,0,0,1,43.637,15.93ZM98.677,3.041a6.452,6.452,0,0,1,6.45,6.64,6.5,6.5,0,0,1-5.909,6.245H50.1a9.446,9.446,0,0,0,.014-12.884H98.677Zm-70.4,77.251a.183.183,0,0,1-.182-.182V11.291a8.259,8.259,0,0,1,8.25-8.25h6.806A6.45,6.45,0,0,1,49.6,9.58H37.024a3.222,3.222,0,0,0-3.21,3.21v67.5Z" transform="translate(-25.05 0)"/>
        <path id="Trazado_776912" data-name="Trazado 776912" d="M226,226.723a37.718,37.718,0,0,0-8.53-9.955l3.6-5.147a4.583,4.583,0,0,0-5.274-6.95,5.123,5.123,0,0,0-2.233-1.4V191.251a1.521,1.521,0,1,0-3.041,0V203.27a5.122,5.122,0,0,0-2.233,1.4,4.583,4.583,0,0,0-5.274,6.95l3.6,5.147a37.737,37.737,0,0,0-8.529,9.954c-3.15,5.118-4.956,10.221-4.956,14a15.678,15.678,0,0,0,.579,4.345H167.371a1.521,1.521,0,1,0,0,3.041h27.66c2.794,4.537,8.6,6.96,17.008,6.96,12.2,0,18.914-5.1,18.914-14.347C230.953,236.944,229.147,231.841,226,226.723Zm-20.5-18.6a1.539,1.539,0,0,1,2.077-.443l.045.028a1.849,1.849,0,0,0,2.38-.371l.458-.533a2.089,2.089,0,0,1,3.168,0l.458.532a1.849,1.849,0,0,0,2.38.371l.044-.027a1.541,1.541,0,0,1,2.069,2.2l-4.019,5.748h-5.033l-4.019-5.748a1.548,1.548,0,0,1-.009-1.754Zm6.544,43.9c-10.533,0-15.873-3.8-15.873-11.305,0-6.946,7.343-18.278,13.012-22.055H214.9c5.669,3.776,13.012,15.107,13.012,22.055,0,7.5-5.341,11.305-15.873,11.305Z" transform="translate(-137.303 -151.262)"/>
        <path id="Trazado_776913" data-name="Trazado 776913" d="M372.173,368.307l-.611-.225a24.356,24.356,0,0,1-3.188-1.306.923.923,0,0,1-.455-.955,1.683,1.683,0,0,1,1.278-1.4,4.784,4.784,0,0,1,3.966.911,1.521,1.521,0,0,0,1.95-2.334,8.52,8.52,0,0,0-3.467-1.621v-1.358a1.521,1.521,0,1,0-3.041,0v1.412c-.095.024-.19.049-.285.078a4.74,4.74,0,0,0-3.426,4,3.935,3.935,0,0,0,2.025,3.939,26.377,26.377,0,0,0,3.593,1.489l.608.224c.65.24,2.138.923,1.929,2.092a2.517,2.517,0,0,1-2.6,1.726,4.987,4.987,0,0,1-3.664-1.538,1.521,1.521,0,0,0-2.254,2.042,7.88,7.88,0,0,0,4.071,2.325v1.421a1.521,1.521,0,0,0,3.041,0V377.9a5.3,5.3,0,0,0,4.4-4.118C376.371,371.949,375.527,369.544,372.173,368.307Z" transform="translate(-295.39 -285.815)"/>
        <path id="Trazado_776914" data-name="Trazado 776914" d="M143.5,180.066a2.86,2.86,0,0,0,2.857,2.857h13.222l-1.208,1.13a1.521,1.521,0,1,0,2.078,2.221l3.812-3.566a1.791,1.791,0,0,0,0-2.614l-3.812-3.568a1.521,1.521,0,0,0-2.078,2.221l1.212,1.135H146.544v-8.689h4.147a2.537,2.537,0,0,0,2.534-2.534v-1.17h10.658a1.521,1.521,0,0,0,1.521-1.521v-13.6h2.3a2.537,2.537,0,0,0,2.534-2.534v-4.41a2.537,2.537,0,0,0-2.534-2.534h-7.648a2.537,2.537,0,0,0-2.534,2.534v.683h-5.831a2.517,2.517,0,0,0-.231-.27l-4.649-4.649a2.561,2.561,0,0,0-.27-.231v-5.675h4.147a2.537,2.537,0,0,0,2.534-2.534v-5.384a2.537,2.537,0,0,0-2.534-2.534H139.354a2.537,2.537,0,0,0-2.534,2.534v5.384a2.537,2.537,0,0,0,2.534,2.534H143.5v5.674a2.527,2.527,0,0,0-.272.233l-4.649,4.649a2.537,2.537,0,0,0,0,3.584l4.649,4.649a2.525,2.525,0,0,0,.272.233v6.435h-4.148a2.537,2.537,0,0,0-2.534,2.534v5.384a2.537,2.537,0,0,0,2.534,2.534H143.5Zm-3.641-52.193h10.322v4.37H139.861Zm20.705,18.061H167.2v3.4h-6.634Zm-19.476,1.7,3.932-3.932,3.932,3.932-3.932,3.932Zm5.454,6.672a2.5,2.5,0,0,0,.27-.231l4.649-4.649a2.527,2.527,0,0,0,.233-.272h5.829v.685a2.537,2.537,0,0,0,2.534,2.534h2.3v12.076h-9.137v-1.173a2.537,2.537,0,0,0-2.534-2.534h-4.147Zm-6.683,9.477h10.322v4.37H139.861Z" transform="translate(-114.159 -99.522)"/>
      </g>
    </g>
  </g>
</svg>
