<svg xmlns="http://www.w3.org/2000/svg" xmlns:xlink="http://www.w3.org/1999/xlink" width="195" height="195" viewBox="0 0 195 195">
  <defs>
    <radialGradient id="radial-gradient" cx="0.5" cy="0.5" r="0.5" gradientUnits="objectBoundingBox">
      <stop offset="0" stop-color="#fff"/>
      <stop offset="1" stop-color="#e0e0e0"/>
    </radialGradient>
    <filter id="_21" x="0" y="0" width="195" height="195" filterUnits="userSpaceOnUse">
      <feOffset dy="3" input="SourceAlpha"/>
      <feGaussianBlur stdDeviation="3" result="blur"/>
      <feFlood flood-opacity="0.161"/>
      <feComposite operator="in" in2="blur"/>
      <feComposite in="SourceGraphic"/>
    </filter>
  </defs>
  <g id="Grupo_1029414" data-name="Grupo 1029414" transform="translate(-1070 -713)">
    <g transform="matrix(1, 0, 0, 1, 1070, 713)" filter="url(#_21)">
      <g id="_21-2" data-name="21" transform="translate(9 6)" stroke="#fff" stroke-width="3" fill="url(#radial-gradient)">
        <circle cx="88.5" cy="88.5" r="88.5" stroke="none"/>
        <circle cx="88.5" cy="88.5" r="87" fill="none"/>
      </g>
    </g>
    <g id="_016-legal_services" data-name="016-legal services" transform="translate(1113.005 758)">
      <g id="Grupo_1029405" data-name="Grupo 1029405" transform="translate(12.033 1.45)">
        <path id="Trazado_776883" data-name="Trazado 776883" d="M84.687,7.5V88.516h48.161a1.876,1.876,0,0,0,1.876-1.876V9.376A1.876,1.876,0,0,0,132.848,7.5Z" transform="translate(-75.509 -7.5)" fill="#e5eef9"/>
        <path id="Trazado_776884" data-name="Trazado 776884" d="M311.173,7.5h-5.414a1.876,1.876,0,0,1,1.876,1.876V86.64a1.876,1.876,0,0,1-1.876,1.876h5.414a1.876,1.876,0,0,0,1.876-1.876V9.376A1.876,1.876,0,0,0,311.173,7.5Z" transform="translate(-253.834 -7.5)" fill="#c4e2ff"/>
        <path id="Trazado_776885" data-name="Trazado 776885" d="M46.4,7.5V88.516H39.1A1.876,1.876,0,0,1,37.22,86.64V9.376A1.876,1.876,0,0,1,39.1,7.5Z" transform="translate(-37.22 -7.5)" fill="#2d54fe"/>
        <path id="Trazado_776886" data-name="Trazado 776886" d="M424.694,344.622H408.3a.58.58,0,0,0-.58.58v1.653a8.777,8.777,0,0,0,17.554,0V345.2A.58.58,0,0,0,424.694,344.622Z" transform="translate(-336.08 -279.436)" fill="#fe502d"/>
        <path id="Trazado_776887" data-name="Trazado 776887" d="M459.5,344.622h-4.641a.614.614,0,0,1,.58.642v1.829a9.908,9.908,0,0,1-4.569,8.527c.143.007.288.011.433.011a8.777,8.777,0,0,0,8.777-8.777V345.2A.58.58,0,0,0,459.5,344.622Z" transform="translate(-370.89 -279.436)" fill="#cd2f0f"/>
        <path id="Trazado_776888" data-name="Trazado 776888" d="M440.961,255.99a2.913,2.913,0,1,0,2.913,2.913A2.913,2.913,0,0,0,440.961,255.99Z" transform="translate(-360.544 -207.942)" fill="#ffca00"/>
        <path id="Trazado_776889" data-name="Trazado 776889" d="M190.426,344.622H206.82a.58.58,0,0,1,.58.58v1.653a8.777,8.777,0,0,1-17.554,0V345.2A.58.58,0,0,1,190.426,344.622Z" transform="translate(-160.334 -279.436)" fill="#fe502d"/>
        <path id="Trazado_776890" data-name="Trazado 776890" d="M241.63,344.622h-4.641a.613.613,0,0,1,.58.642v1.829A9.908,9.908,0,0,1,233,355.621c.143.007.288.011.433.011a8.777,8.777,0,0,0,8.777-8.777V345.2A.58.58,0,0,0,241.63,344.622Z" transform="translate(-195.144 -279.436)" fill="#cd2f0f"/>
        <path id="Trazado_776891" data-name="Trazado 776891" d="M223.086,255.99a2.913,2.913,0,1,1-2.913,2.913A2.913,2.913,0,0,1,223.086,255.99Z" transform="translate(-184.797 -207.942)" fill="#ffca00"/>
        <path id="Trazado_776892" data-name="Trazado 776892" d="M331.587,265.384h-7.939v-36.4a3.36,3.36,0,0,1,.355-1.5l3.614-7.218,3.614,7.218a3.359,3.359,0,0,1,.355,1.5Z" transform="translate(-268.264 -179.123)" fill="#e19974"/>
        <g id="Grupo_1029404" data-name="Grupo 1029404" transform="translate(43.607 35.1)">
          <circle id="Elipse_8840" data-name="Elipse 8840" cx="4.398" cy="4.398" r="4.398" transform="translate(11.348)" fill="#596c76"/>
          <path id="Trazado_776893" data-name="Trazado 776893" d="M288.212,444.541v-2a3.784,3.784,0,0,0-3.784-3.784H272.546a3.784,3.784,0,0,0-3.784,3.784v2a.753.753,0,0,1-.753.753h-2.344a2.924,2.924,0,0,0-2.924,2.924v2.539a.709.709,0,0,0,.709.709h30.073a.709.709,0,0,0,.709-.709v-2.539a2.924,2.924,0,0,0-2.924-2.924h-2.344A.753.753,0,0,1,288.212,444.541Z" transform="translate(-262.74 -390.467)" fill="#596c76"/>
        </g>
      </g>
      <g id="Grupo_1029406" data-name="Grupo 1029406" transform="translate(5.995 0)">
        <path id="Trazado_776894" data-name="Trazado 776894" d="M174.36,146.8a1.45,1.45,0,0,0,1.45,1.45h12.458a1.45,1.45,0,1,0,0-2.9H175.81A1.45,1.45,0,0,0,174.36,146.8Z" transform="translate(-141.805 -117.246)"/>
        <path id="Trazado_776895" data-name="Trazado 776895" d="M193.188,48.362a3.824,3.824,0,0,1-2.811-1.176,1.45,1.45,0,1,0-2.149,1.948,6.5,6.5,0,0,0,3.245,1.917v.974a1.45,1.45,0,1,0,2.9,0v-.9a4.488,4.488,0,0,0,3.561-3.479c.282-1.577-.431-3.636-3.277-4.686a27.075,27.075,0,0,1-3.051-1.228.533.533,0,0,1-.257-.561,1.152,1.152,0,0,1,.883-.948,3.658,3.658,0,0,1,3.016.7,1.45,1.45,0,0,0,1.858-2.227,7.16,7.16,0,0,0-2.734-1.322V36.45a1.45,1.45,0,1,0-2.9,0v.979l-.077.021a4.06,4.06,0,0,0-2.932,3.427,3.4,3.4,0,0,0,1.754,3.407,26.278,26.278,0,0,0,3.435,1.4c.371.137,1.57.646,1.426,1.455a1.824,1.824,0,0,1-1.891,1.221Z" transform="translate(-152.689 -28.232)"/>
        <path id="Trazado_776896" data-name="Trazado 776896" d="M100.647,65.186h-.529V61.272a10.089,10.089,0,0,0-3.359-7.511l-.125-.113A4.359,4.359,0,0,0,93.9,48.3V44.422a5.625,5.625,0,0,0,4.321-5.47,1.45,1.45,0,1,0-2.9,0A2.719,2.719,0,0,1,92.5,41.67a2.794,2.794,0,0,1-2.618-2.816V38.8a7.216,7.216,0,0,0-11.971-5.428l-3.179,2.785A5.822,5.822,0,0,0,72.7,35.25V3.326A3.33,3.33,0,0,0,69.372,0h-6.58a1.45,1.45,0,0,0,0,2.9h6.58a.426.426,0,0,1,.425.425v32a5.826,5.826,0,0,0-1.759.836l-3.179-2.786A7.216,7.216,0,0,0,52.888,38.8v.054A2.794,2.794,0,0,1,50.27,41.67a2.719,2.719,0,0,1-2.819-2.717,1.45,1.45,0,0,0-2.9,0,5.625,5.625,0,0,0,4.322,5.47V48.3a4.36,4.36,0,0,0-2.734,5.352l-.124.111a10.09,10.09,0,0,0-3.361,7.512v3.914h-.529a2.033,2.033,0,0,0-2.03,2.03v1.653a10.227,10.227,0,1,0,20.455,0V67.216a2.033,2.033,0,0,0-2.03-2.03h-.53V61.272a10.094,10.094,0,0,0-3.357-7.511l-.126-.113A4.36,4.36,0,0,0,51.773,48.3V44.339a5.682,5.682,0,0,0,4.016-5.485V38.8a4.316,4.316,0,0,1,7.16-3.246l3.2,2.8a5.84,5.84,0,0,0,2,7.462l-1.673,3.342a4.838,4.838,0,0,0-.509,2.153v29.7H22.661V2.9H56.023a1.45,1.45,0,1,0,0-2.9H13.909a3.33,3.33,0,0,0-3.326,3.326v7.253H7.445a1.45,1.45,0,0,0,0,2.9h3.137V25.543H7.445a1.45,1.45,0,1,0,0,2.9h3.137V40.508H7.445a1.45,1.45,0,1,0,0,2.9h3.137V55.473H7.445a1.45,1.45,0,1,0,0,2.9h3.137V70.437H7.445a1.45,1.45,0,1,0,0,2.9h3.137V80.59a3.33,3.33,0,0,0,3.326,3.326H63.154a5.24,5.24,0,0,0-2.944,4.706v1.306H58.563A4.379,4.379,0,0,0,54.189,94.3v2.539A2.162,2.162,0,0,0,56.349,99H86.422a2.162,2.162,0,0,0,2.159-2.159V94.3a4.379,4.379,0,0,0-4.374-4.374H82.561V88.622a5.24,5.24,0,0,0-5.234-5.234H76.8V51.312a4.869,4.869,0,0,0-.507-2.153l-1.673-3.343a5.84,5.84,0,0,0,2-7.461l3.2-2.8a4.316,4.316,0,0,1,7.16,3.246v.054A5.682,5.682,0,0,0,91,44.339V48.3a4.36,4.36,0,0,0-2.733,5.351l-.125.113a10.1,10.1,0,0,0-3.358,7.512v3.914h-.53a2.033,2.033,0,0,0-2.03,2.03v1.653a10.222,10.222,0,0,0,.447,3,1.45,1.45,0,1,0,2.773-.849,7.336,7.336,0,0,1-.32-2.149v-.783H99.777v.783a7.33,7.33,0,0,1-10.819,6.443,1.45,1.45,0,1,0-1.385,2.548,10.23,10.23,0,0,0,15.1-8.992V67.217a2.033,2.033,0,0,0-2.031-2.03Zm-43,3.683a7.327,7.327,0,1,1-14.654,0v-.783H57.648v.783Zm-2.56-7.6v3.914H45.554V61.272a7.185,7.185,0,0,1,2.3-5.264,4.351,4.351,0,0,0,4.932,0,7.189,7.189,0,0,1,2.3,5.264Zm-4.767-7.4a1.463,1.463,0,1,1,1.463-1.463,1.465,1.465,0,0,1-1.463,1.463ZM71.386,43.9a2.948,2.948,0,1,1,2.948-2.948A2.952,2.952,0,0,1,71.386,43.9ZM13.483,80.59V73.337h1.289a1.45,1.45,0,0,0,0-2.9H13.483V58.373h1.289a1.45,1.45,0,1,0,0-2.9H13.483V43.408h1.289a1.45,1.45,0,0,0,0-2.9H13.483V28.444h1.289a1.45,1.45,0,0,0,0-2.9H13.483V13.479h1.289a1.45,1.45,0,0,0,0-2.9H13.483V3.326a.426.426,0,0,1,.426-.426h5.852V81.016H13.909a.426.426,0,0,1-.426-.426Zm66.178,8.032v2a2.206,2.206,0,0,0,2.2,2.2h2.344A1.475,1.475,0,0,1,85.682,94.3v1.8H57.09V94.3a1.475,1.475,0,0,1,1.473-1.473h2.344a2.206,2.206,0,0,0,2.2-2.2v-2a2.337,2.337,0,0,1,2.334-2.334H77.327A2.337,2.337,0,0,1,79.661,88.622ZM73.7,50.452a1.945,1.945,0,0,1,.2.86V83.388H68.867V51.312a1.922,1.922,0,0,1,.2-.855l1.842-3.68c.157.013.315.021.475.021s.319-.008.476-.021Zm18.748.5a1.463,1.463,0,1,1-1.462,1.463A1.465,1.465,0,0,1,92.45,50.948ZM87.683,61.272a7.189,7.189,0,0,1,2.3-5.264,4.351,4.351,0,0,0,4.932,0,7.184,7.184,0,0,1,2.3,5.264v3.914H87.683Z" transform="translate(-5.995 0)"/>
      </g>
    </g>
  </g>
</svg>
