<svg xmlns="http://www.w3.org/2000/svg" width="95" height="95" viewBox="0 0 95 95">
  <g id="Grupo_1029331" data-name="Grupo 1029331" transform="translate(9863 9870)">
    <rect id="Rectángulo_361917" data-name="Rectángulo 361917" width="95" height="95" transform="translate(-9863 -9870)" fill="none"/>
    <g id="Grupo_1029313" data-name="Grupo 1029313" transform="translate(1035.5 -21.5)">
      <path id="Trazado_776754" data-name="Trazado 776754" d="M235.844,457.781a4.922,4.922,0,1,1-9.844,0l4.922-3.281Z" transform="translate(-11081.421 -10222.433)" fill="#2e67d0"/>
      <g id="Grupo_1029297" data-name="Grupo 1029297" transform="translate(-10891.271 -9822.073)">
        <g id="Grupo_1029295" data-name="Grupo 1029295" transform="translate(30.926)">
          <path id="Trazado_776755" data-name="Trazado 776755" d="M249.143,179.059l1.125,3.281h36.668a4.1,4.1,0,0,0,4.1-4.1V129.02a4.1,4.1,0,0,0-3.281-4.02Z" transform="translate(-240.424 -124.918)" fill="#2d54fe"/>
          <path id="Trazado_776756" data-name="Trazado 776756" d="M243.332,175.359V124.582a4.12,4.12,0,0,0-.82-.082H205.844L196,153.211l8.719,25.43h35.332A3.281,3.281,0,0,0,243.332,175.359Z" transform="translate(-196 -124.5)" fill="#2d54fe"/>
        </g>
        <g id="Grupo_1029296" data-name="Grupo 1029296">
          <path id="Trazado_776757" data-name="Trazado 776757" d="M165.671,441.062h11.751v-3.281L170.4,434.5l-8.4,3.281Z" transform="translate(-136.652 -383.641)" fill="#2d54fe"/>
          <path id="Trazado_776758" data-name="Trazado 776758" d="M48.27,124.5H11.6a4.1,4.1,0,0,0-4.1,4.1V177.82a4.1,4.1,0,0,0,4.1,4.1H36.519q-.412-.957-.806-1.928a.985.985,0,0,1,.914-1.353H48.27Z" transform="translate(-7.5 -124.5)" fill="#2d54fe"/>
        </g>
      </g>
      <g id="Grupo_1029300" data-name="Grupo 1029300" transform="translate(-10884.708 -9828.636)">
        <g id="Grupo_1029298" data-name="Grupo 1029298" transform="translate(24.363)">
          <path id="Trazado_776759" data-name="Trazado 776759" d="M199.543,105.238,196,113.211l9.844,28.711H237.18a2.871,2.871,0,0,0,2.871-2.871V87.371A2.871,2.871,0,0,0,237.18,84.5h-12.7Z" transform="translate(-196 -84.5)" fill="#e8edf5"/>
          <path id="Trazado_776760" data-name="Trazado 776760" d="M242.765,87.453a18.927,18.927,0,0,0-.231-2.953H230.46a6.563,6.563,0,0,0-6.562,6.563l-6.3,14.176a18.87,18.87,0,0,0,25.168-17.785Z" transform="translate(-214.054 -84.5)" fill="#dbe2ec"/>
        </g>
        <g id="Grupo_1029299" data-name="Grupo 1029299">
          <path id="Trazado_776761" data-name="Trazado 776761" d="M113.138,102H107.5v51.68l10.067,2.871h14.3v-35.6Z" transform="translate(-97.656 -99.129)" fill="#dbe2ec"/>
          <path id="Trazado_776762" data-name="Trazado 776762" d="M75.145,84.5H50.371A2.871,2.871,0,0,0,47.5,87.371v51.68a2.871,2.871,0,0,0,2.871,2.871h17.04a102.856,102.856,0,0,1-5.556-33.633,105.78,105.78,0,0,1,1.1-15.277.362.362,0,0,1,.7-.05A18.9,18.9,0,0,0,81.707,106.32V91.062A6.563,6.563,0,0,0,75.145,84.5Z" transform="translate(-47.5 -84.5)" fill="#ccd3e2"/>
        </g>
      </g>
      <g id="Grupo_1029301" data-name="Grupo 1029301" transform="translate(-10876.505 -9820.433)">
        <path id="Trazado_776763" data-name="Trazado 776763" d="M123.576,134.5h-.581l-3.728,4.1,2.835,4.1h6.383l-.73-4.1Z" transform="translate(-115.696 -134.5)" fill="#2d54fe"/>
        <path id="Trazado_776764" data-name="Trazado 776764" d="M155.778,134.5H145.529a18.888,18.888,0,0,0,4.909,8.2h5.341Z" transform="translate(-137.649 -134.5)" fill="#2d54fe"/>
        <path id="Trazado_776765" data-name="Trazado 776765" d="M99.141,134.5a1.641,1.641,0,0,0-1.641,1.641v4.922a1.641,1.641,0,0,0,1.641,1.641h4.765q.288-4.161.893-8.2Z" transform="translate(-97.5 -134.5)" fill="#2d54fe"/>
      </g>
      <g id="Grupo_1029302" data-name="Grupo 1029302" transform="translate(-10842.625 -9820.433)">
        <path id="Trazado_776766" data-name="Trazado 776766" d="M336.551,142.7H347.7a1.641,1.641,0,0,0,1.641-1.641v-4.922A1.641,1.641,0,0,0,347.7,134.5H341.46l-4.909,4.1v4.1Z" transform="translate(-331.211 -134.5)" fill="#fe502d"/>
        <path id="Trazado_776767" data-name="Trazado 776767" d="M314.249,134.5H304v8.2h5.34A18.888,18.888,0,0,0,314.249,134.5Z" transform="translate(-304 -134.5)" fill="#fe502d"/>
      </g>
      <g id="Grupo_1029304" data-name="Grupo 1029304" transform="translate(-10866.086 -9841.271)">
        <path id="Trazado_776768" data-name="Trazado 776768" d="M204.9,38.262a15.589,15.589,0,1,0-8-30.123l-6.293,6.767,8.693,23.355Z" transform="translate(-185.755 -7.5)" fill="#ffe068"/>
        <path id="Trazado_776769" data-name="Trazado 776769" d="M169.511,22.45a23.821,23.821,0,0,1,2.641-11.05,15.59,15.59,0,0,0,8,30.123C173.924,38.554,169.511,31.134,169.511,22.45Z" transform="translate(-161 -10.76)" fill="#ffca00"/>
      </g>
      <g id="Lineal_43_" transform="translate(-10892.5 -9842.5)">
        <path id="Trazado_776770" data-name="Trazado 776770" d="M224.652,480.652A6.159,6.159,0,0,1,218.5,474.5h2.461a3.691,3.691,0,1,0,7.383,0H230.8A6.159,6.159,0,0,1,224.652,480.652Z" transform="translate(-182.652 -396.652)"/>
        <g id="Grupo_1029305" data-name="Grupo 1029305" transform="translate(0 19.195)">
          <path id="Trazado_776771" data-name="Trazado 776771" d="M62.262,176.883H5.332A5.338,5.338,0,0,1,0,171.551V122.332A5.338,5.338,0,0,1,5.332,117H7.793a1.23,1.23,0,1,1,0,2.461H5.332a2.874,2.874,0,0,0-2.871,2.871v49.219a2.874,2.874,0,0,0,2.871,2.871h56.93a1.23,1.23,0,0,1,0,2.461Z" transform="translate(0 -117)"/>
          <path id="Trazado_776772" data-name="Trazado 776772" d="M418.895,176.883H408.23a1.23,1.23,0,0,1,0-2.461h10.664a2.874,2.874,0,0,0,2.871-2.871V122.332a2.874,2.874,0,0,0-2.871-2.871h-2.461a1.23,1.23,0,1,1,0-2.461h2.461a5.338,5.338,0,0,1,5.332,5.332v49.219A5.338,5.338,0,0,1,418.895,176.883Z" transform="translate(-340.227 -117)"/>
        </g>
        <g id="Grupo_1029308" data-name="Grupo 1029308" transform="translate(14.766 29.039)">
          <g id="Grupo_1029306" data-name="Grupo 1029306" transform="translate(34.207)">
            <path id="Línea_139" data-name="Línea 139" d="M11.531-5.039H-6.27A1.23,1.23,0,0,1-7.5-6.27,1.23,1.23,0,0,1-6.27-7.5h17.8a1.23,1.23,0,0,1,1.23,1.23A1.23,1.23,0,0,1,11.531-5.039Z" transform="translate(7.5 40.313)"/>
            <path id="Línea_140" data-name="Línea 140" d="M11.531-5.039H-6.27A1.23,1.23,0,0,1-7.5-6.27,1.23,1.23,0,0,1-6.27-7.5h17.8a1.23,1.23,0,0,1,1.23,1.23A1.23,1.23,0,0,1,11.531-5.039Z" transform="translate(7.5 32.109)"/>
            <path id="Línea_141" data-name="Línea 141" d="M11.531-5.039H-6.27A1.23,1.23,0,0,1-7.5-6.27,1.23,1.23,0,0,1-6.27-7.5h17.8a1.23,1.23,0,0,1,1.23,1.23A1.23,1.23,0,0,1,11.531-5.039Z" transform="translate(7.5 23.906)"/>
            <path id="Línea_142" data-name="Línea 142" d="M11.531-5.039H-6.27A1.23,1.23,0,0,1-7.5-6.27,1.23,1.23,0,0,1-6.27-7.5h17.8a1.23,1.23,0,0,1,1.23,1.23A1.23,1.23,0,0,1,11.531-5.039Z" transform="translate(7.5 15.703)"/>
            <path id="Línea_143" data-name="Línea 143" d="M-6.27,27.773a1.23,1.23,0,0,1-1.23-1.23V-6.27A1.23,1.23,0,0,1-6.27-7.5a1.23,1.23,0,0,1,1.23,1.23V26.543A1.23,1.23,0,0,1-6.27,27.773Z" transform="translate(12.422 7.5)"/>
          </g>
          <g id="Grupo_1029307" data-name="Grupo 1029307">
            <path id="Línea_144" data-name="Línea 144" d="M11.531-5.039H-6.27A1.23,1.23,0,0,1-7.5-6.27,1.23,1.23,0,0,1-6.27-7.5h17.8a1.23,1.23,0,0,1,1.23,1.23A1.23,1.23,0,0,1,11.531-5.039Z" transform="translate(7.5 40.313)"/>
            <path id="Línea_145" data-name="Línea 145" d="M11.531-5.039H-6.27A1.23,1.23,0,0,1-7.5-6.27,1.23,1.23,0,0,1-6.27-7.5h17.8a1.23,1.23,0,0,1,1.23,1.23A1.23,1.23,0,0,1,11.531-5.039Z" transform="translate(7.5 32.109)"/>
            <path id="Línea_146" data-name="Línea 146" d="M11.531-5.039H-6.27A1.23,1.23,0,0,1-7.5-6.27,1.23,1.23,0,0,1-6.27-7.5h17.8a1.23,1.23,0,0,1,1.23,1.23A1.23,1.23,0,0,1,11.531-5.039Z" transform="translate(7.5 23.906)"/>
            <path id="Línea_147" data-name="Línea 147" d="M11.531-5.039H-6.27A1.23,1.23,0,0,1-7.5-6.27,1.23,1.23,0,0,1-6.27-7.5h17.8a1.23,1.23,0,0,1,1.23,1.23A1.23,1.23,0,0,1,11.531-5.039Z" transform="translate(7.5 15.703)"/>
            <path id="Línea_148" data-name="Línea 148" d="M-6.27,27.773a1.23,1.23,0,0,1-1.23-1.23V-6.27A1.23,1.23,0,0,1-6.27-7.5a1.23,1.23,0,0,1,1.23,1.23V26.543A1.23,1.23,0,0,1-6.27,27.773Z" transform="translate(12.422 7.5)"/>
          </g>
        </g>
        <g id="Grupo_1029309" data-name="Grupo 1029309" transform="translate(14.766 20.836)">
          <path id="Trazado_776773" data-name="Trazado 776773" d="M109.359,137.664H92.871A2.874,2.874,0,0,1,90,134.793v-4.922A2.874,2.874,0,0,1,92.871,127h9.684v2.461H92.871a.411.411,0,0,0-.41.41v4.922a.411.411,0,0,0,.41.41h16.488a1.23,1.23,0,1,1,0,2.461Z" transform="translate(-90 -127)"/>
          <path id="Trazado_776774" data-name="Trazado 776774" d="M320.488,137.664H304V135.2h16.488a.411.411,0,0,0,.41-.41v-4.922a.411.411,0,0,0-.41-.41H310.8V127h9.684a2.874,2.874,0,0,1,2.871,2.871v4.922A2.874,2.874,0,0,1,320.488,137.664Z" transform="translate(-268.891 -127)"/>
        </g>
        <g id="Grupo_1029310" data-name="Grupo 1029310" transform="translate(6.563 12.633)">
          <path id="Trazado_776775" data-name="Trazado 776775" d="M41.23,93A1.23,1.23,0,0,1,40,91.766V81.1A4.106,4.106,0,0,1,44.1,77H60.132a1.23,1.23,0,0,1,0,2.461H44.1A1.642,1.642,0,0,0,42.461,81.1V91.766A1.23,1.23,0,0,1,41.23,93Z" transform="translate(-40 -77)"/>
          <path id="Trazado_776776" data-name="Trazado 776776" d="M106.773,136.883H44.1a4.106,4.106,0,0,1-4.1-4.1V97.508a1.23,1.23,0,0,1,2.461,0v35.273a1.642,1.642,0,0,0,1.641,1.641h62.672a1.642,1.642,0,0,0,1.641-1.641V81.1a1.642,1.642,0,0,0-1.641-1.641H90.743a1.23,1.23,0,0,1,0-2.461h16.031a4.106,4.106,0,0,1,4.1,4.1v51.68A4.106,4.106,0,0,1,106.773,136.883Z" transform="translate(-40 -77)"/>
        </g>
        <path id="Línea_149" data-name="Línea 149" d="M-5.039,45.445H-7.5V0h2.461Z" transform="translate(48.27 32.402)"/>
        <g id="Grupo_1029312" data-name="Grupo 1029312" transform="translate(25.184)">
          <path id="Elipse_8832" data-name="Elipse 8832" d="M9.316-7.5A16.816,16.816,0,1,1-7.5,9.316,16.835,16.835,0,0,1,9.316-7.5Zm0,31.172A14.355,14.355,0,1,0-5.039,9.316,14.372,14.372,0,0,0,9.316,23.672Z" transform="translate(7.5 7.5)"/>
          <g id="Grupo_1029311" data-name="Grupo 1029311" transform="translate(11.484 4.922)">
            <path id="Trazado_776777" data-name="Trazado 776777" d="M228.832,63.867a5.338,5.338,0,0,1-5.332-5.332,1.23,1.23,0,1,1,2.461,0,2.871,2.871,0,1,0,2.871-2.871,5.332,5.332,0,1,1,5.332-5.332,1.23,1.23,0,0,1-2.461,0,2.871,2.871,0,1,0-2.871,2.871,5.332,5.332,0,1,1,0,10.664Z" transform="translate(-223.5 -42.539)"/>
            <path id="Línea_150" data-name="Línea 150" d="M-6.27-2.578A1.23,1.23,0,0,1-7.5-3.809V-6.27A1.23,1.23,0,0,1-6.27-7.5a1.23,1.23,0,0,1,1.23,1.23v2.461A1.23,1.23,0,0,1-6.27-2.578Z" transform="translate(11.602 7.5)"/>
            <path id="Línea_151" data-name="Línea 151" d="M-6.27-2.578A1.23,1.23,0,0,1-7.5-3.809V-6.27A1.23,1.23,0,0,1-6.27-7.5a1.23,1.23,0,0,1,1.23,1.23v2.461A1.23,1.23,0,0,1-6.27-2.578Z" transform="translate(11.602 26.367)"/>
          </g>
        </g>
      </g>
    </g>
  </g>
</svg>
