<svg xmlns="http://www.w3.org/2000/svg" width="1328" height="365.25" viewBox="0 0 1328 365.25">
  <g id="Grupo_118286" data-name="Grupo 118286" transform="translate(-588.664 -1027.41)">
    <path id="Trazado_179748" data-name="Trazado 179748" d="M588.664,1027.41v292.314c390.952-50.283,814.178,14.363,1328,27.282V1054.693C1525.712,1104.976,1102.486,1040.33,588.664,1027.41Z" fill="#fcf6d8"/>
    <path id="Trazado_179749" data-name="Trazado 179749" d="M822.51,1148.018c36.631-32.206,65.6-65.206,86.616-98.567l-2.624-.15c-19.514,31.079-47.308,64.066-86.171,98.235-51.974,45.7-78.157,90.391-77.824,132.844.223,28.194,12.108,54.887,35.3,79.731.86-.039,1.723-.071,2.583-.109C722.314,1297.7,736.472,1223.663,822.51,1148.018Z" transform="translate(0 -8.128)" fill="#fff"/>
    <path id="Trazado_179750" data-name="Trazado 179750" d="M993.806,1091.385c9.687-8.1,19.7-16.478,29.226-24.635,2.244-1.921,4.4-3.837,6.5-5.749l-2.544-.159c-1.985,1.8-4.007,3.607-6.121,5.417-9.519,8.15-19.532,16.526-29.215,24.624-85.951,71.892-174.828,146.231-119.036,220.482q19.572,26.049,61.845,50.135l3.1.017q-42.971-24.3-62.634-50.491C819.464,1237.211,908.094,1163.077,993.806,1091.385Z" transform="translate(0 -12.414)" fill="#fff"/>
    <path id="Trazado_179751" data-name="Trazado 179751" d="M706.045,1258.945c6.083-36.655-5.261-69.166-34.68-99.39-19.146-19.67-46.1-38.591-82.7-57.575v1.658c35.5,18.578,61.734,37.1,80.461,56.341,58.722,60.329,46.7,130.034-39,226.014-1.549,1.734-3.017,3.466-4.447,5.2.944-.1,1.893-.2,2.838-.3,1.254-1.5,2.536-3,3.878-4.5C675.788,1337.787,699.879,1296.1,706.045,1258.945Z" transform="translate(0 -27.691)" fill="#fff"/>
    <path id="Trazado_179752" data-name="Trazado 179752" d="M1655.3,1277.6c-24.775-64.62,22.387-129.677,133.64-186.969q-1.977.136-3.955.268c-45.739,23.641-80.54,48.559-103.912,74.461-33.193,36.787-42.673,74.61-28.178,112.419,16.333,42.6,63.607,84.033,136.711,119.813q19.44,9.515,41.166,18.424l3.3.119C1738.206,1377.092,1675.069,1329.179,1655.3,1277.6Z" transform="translate(0 -23.477)" fill="#fff"/>
    <path id="Trazado_179753" data-name="Trazado 179753" d="M1816.033,1264c-5.871,41.569,27.238,86.26,100.631,135.3v-1.97c-71.648-48.288-103.98-92.317-98.2-133.259,5.435-38.482,43.81-71.205,98.2-100.811v-1.715C1860.992,1191.56,1821.571,1224.786,1816.033,1264Z" transform="translate(0 -49.806)" fill="#fff"/>
    <path id="Trazado_179754" data-name="Trazado 179754" d="M1474.579,1259.675c-8.065-38.881,23.526-75.24,93.893-108.065,38.791-18.1,72.169-35.453,100.516-52.29-1.013.024-2.028.045-3.041.068-28.155,16.608-61.12,33.7-99.247,51.483-70.869,33.059-102.681,69.7-94.549,108.9,7.4,35.657,51.713,88.148,203.342,152.561,1.332.069,2.66.14,3.993.209C1526.53,1347.918,1481.975,1295.327,1474.579,1259.675Z" transform="translate(0 -26.702)" fill="#fff"/>
  </g>
</svg>
