<svg xmlns="http://www.w3.org/2000/svg" xmlns:xlink="http://www.w3.org/1999/xlink" width="1328" height="496" viewBox="0 0 1328 496">
  <defs>
    <clipPath id="clip-path">
      <rect id="Rectángulo_361906" data-name="Rectángulo 361906" width="1328" height="496" rx="20" transform="translate(136 5034)" fill="#fff" stroke="#707070" stroke-width="1"/>
    </clipPath>
  </defs>
  <g id="Enmascarar_grupo_998589" data-name="Enmascarar grupo 998589" transform="translate(-136 -5034)" clip-path="url(#clip-path)">
    <g id="bg-curve" transform="translate(136 5198)">
      <path id="Trazado_776634" data-name="Trazado 776634" d="M1916.664,1027.41v711.029c-390.952-105-814.178,29.992-1328,56.971V1084.381C979.616,1189.382,1402.842,1054.389,1916.664,1027.41Z" transform="translate(-588.664 -1027.41)" fill="#fcf6d8"/>
      <path id="Trazado_776635" data-name="Trazado 776635" d="M829.12,1255.442c-36.631-67.254-65.6-136.163-86.616-205.828l2.624-.313c19.514,64.9,47.308,133.783,86.171,205.133,51.974,95.422,78.157,188.754,77.824,277.4-.223,58.876-12.108,114.616-35.3,166.5-.86-.08-1.723-.15-2.583-.229C929.316,1568,915.158,1413.4,829.12,1255.442Z" transform="translate(265.034 -1020.563)" fill="#fff"/>
      <path id="Trazado_776636" data-name="Trazado 776636" d="M890.946,1124.622c-9.687-16.918-19.7-34.409-29.226-51.443-2.244-4.012-4.4-8.012-6.5-12.005l2.544-.332c1.985,3.764,4.007,7.531,6.121,11.311,9.519,17.02,19.532,34.51,29.215,51.42,85.951,150.124,174.828,305.36,119.036,460.41q-19.572,54.4-61.845,104.693-1.551.016-3.1.035,42.971-50.735,62.634-105.434C1065.288,1429.135,976.658,1274.329,890.946,1124.622Z" transform="translate(31.912 -1016.953)" fill="#fff"/>
      <path id="Trazado_776637" data-name="Trazado 776637" d="M590.253,1429.753c-6.083-76.543,5.261-144.432,34.68-207.545,19.146-41.075,46.1-80.585,82.7-120.227v3.462c-35.5,38.794-61.734,77.477-80.461,117.651-58.722,125.979-46.7,271.536,39,471.959,1.549,3.623,3.017,7.239,4.447,10.851-.944-.217-1.893-.412-2.838-.626-1.254-3.128-2.536-6.26-3.878-9.4C620.51,1594.39,596.419,1507.338,590.253,1429.753Z" transform="translate(620.366 -1004.086)" fill="#fff"/>
      <path id="Trazado_776638" data-name="Trazado 776638" d="M1825.083,1481.061c24.775-134.939-22.387-270.791-133.64-390.428q1.977.283,3.955.559c45.739,49.367,80.54,101.4,103.912,155.489,33.193,76.819,42.673,155.8,28.178,234.752-16.333,88.961-63.607,175.476-136.711,250.193q-19.44,19.869-41.166,38.472-1.648.126-3.3.248C1742.173,1688.815,1805.31,1588.763,1825.083,1481.061Z" transform="translate(-1563.715 -1007.635)" fill="#fff"/>
      <path id="Trazado_776639" data-name="Trazado 776639" d="M1916,1375.492c5.871,86.8-27.238,180.128-100.631,282.524V1653.9c71.648-100.836,103.98-192.775,98.2-278.271-5.435-80.358-43.81-148.691-98.2-210.513v-3.581C1871.042,1224.23,1910.463,1293.612,1916,1375.492Z" transform="translate(-1815.37 -985.458)" fill="#fff"/>
      <path id="Trazado_776640" data-name="Trazado 776640" d="M1675.816,1434.173c8.065-81.193-23.526-157.116-93.893-225.661-38.791-37.787-72.169-74.033-100.516-109.193,1.013.051,2.028.094,3.041.143,28.155,34.681,61.12,70.366,99.247,107.506,70.869,69.034,102.681,145.546,94.549,227.408-7.4,74.458-51.713,184.071-203.342,318.577-1.332.145-2.66.293-3.993.436C1623.865,1618.441,1668.42,1508.621,1675.816,1434.173Z" transform="translate(-1233.73 -1004.919)" fill="#fff"/>
    </g>
  </g>
</svg>
