<svg xmlns="http://www.w3.org/2000/svg" width="104" height="104" viewBox="0 0 104 104">
  <g id="Grupo_1029412" data-name="Grupo 1029412" transform="translate(-297 -2785)">
    <circle id="Elipse_8442" data-name="Elipse 8442" cx="52" cy="52" r="52" transform="translate(297 2785)" fill="#fff"/>
    <g id="caracteristica" transform="translate(320 2808)">
      <g id="Grupo_1029393" data-name="Grupo 1029393" transform="translate(1.899 1.899)">
        <path id="Trazado_776791" data-name="Trazado 776791" d="M51,2h6.292a3.6,3.6,0,0,1,3.6,3.6v1.8H51Z" transform="translate(-6.953 -2)" fill="#b5b1a5"/>
        <path id="Trazado_776792" data-name="Trazado 776792" d="M10,55.935V5.6A3.6,3.6,0,0,1,13.6,2H50.451a3.6,3.6,0,0,0-3.6,3.6V52.339a3.6,3.6,0,0,1-3.6,3.6H10Z" transform="translate(-2.809 -2)" fill="#d9d5ca"/>
        <g id="Grupo_1029381" data-name="Grupo 1029381" transform="translate(7.191)">
          <path id="Trazado_776793" data-name="Trazado 776793" d="M10,5.6v9.8A45.422,45.422,0,0,0,46.856,46.9V5.6a3.6,3.6,0,0,1,3.6-3.6H13.6A3.6,3.6,0,0,0,10,5.6Z" transform="translate(-10 -2)" fill="#f2efe0"/>
        </g>
        <path id="Trazado_776794" data-name="Trazado 776794" d="M38.856,61.394a3.6,3.6,0,0,1-3.6-3.6V56H2v1.8a3.6,3.6,0,0,0,3.6,3.6H38.855Z" transform="translate(-2 -7.458)" fill="#f2efe0"/>
        <path id="Trazado_776795" data-name="Trazado 776795" d="M14,10h8.989v8.989H14Z" transform="translate(-3.213 -2.809)" fill="#81b4fc"/>
        <g id="Grupo_1029382" data-name="Grupo 1029382" transform="translate(25.17 7.191)">
          <path id="Trazado_776796" data-name="Trazado 776796" d="M30,10H46.181v1.8H30Z" transform="translate(-30 -10)" fill="#b5b1a5"/>
        </g>
        <g id="Grupo_1029383" data-name="Grupo 1029383" transform="translate(22.473 10.787)">
          <path id="Trazado_776797" data-name="Trazado 776797" d="M27,14H45.877v1.8H27Z" transform="translate(-27 -14)" fill="#b5b1a5"/>
        </g>
        <g id="Grupo_1029384" data-name="Grupo 1029384" transform="translate(22.473 14.383)">
          <path id="Trazado_776798" data-name="Trazado 776798" d="M27,18H45.877v1.8H27Z" transform="translate(-27 -18)" fill="#b5b1a5"/>
        </g>
        <path id="Trazado_776799" data-name="Trazado 776799" d="M14,24h8.989v8.989H14Z" transform="translate(-3.213 -4.224)" fill="#81b4fc"/>
        <g id="Grupo_1029385" data-name="Grupo 1029385" transform="translate(10.787 21.852)">
          <path id="Trazado_776800" data-name="Trazado 776800" d="M14,33.223h4.678A45.44,45.44,0,0,1,14,26.309Z" transform="translate(-14 -26.309)" fill="#5490f5"/>
        </g>
        <g id="Grupo_1029386" data-name="Grupo 1029386" transform="translate(25.17 19.776)">
          <path id="Trazado_776801" data-name="Trazado 776801" d="M30,24H41.686v1.8H30Z" transform="translate(-30 -24)" fill="#b5b1a5"/>
        </g>
        <g id="Grupo_1029387" data-name="Grupo 1029387" transform="translate(22.473 23.372)">
          <path id="Trazado_776802" data-name="Trazado 776802" d="M27,28h9.888v1.8H27Z" transform="translate(-27 -28)" fill="#b5b1a5"/>
        </g>
        <g id="Grupo_1029388" data-name="Grupo 1029388" transform="translate(22.473 26.968)">
          <path id="Trazado_776803" data-name="Trazado 776803" d="M27,32h7.191v1.8H27Z" transform="translate(-27 -32)" fill="#b5b1a5"/>
        </g>
        <path id="Trazado_776804" data-name="Trazado 776804" d="M14,38h8.989v8.989H14Z" transform="translate(-3.213 -5.639)" fill="#5490f5"/>
        <g id="Grupo_1029389" data-name="Grupo 1029389" transform="translate(22.473 32.361)">
          <path id="Trazado_776805" data-name="Trazado 776805" d="M27,38h8.09v1.8H27Z" transform="translate(-27 -38)" fill="#b5b1a5"/>
        </g>
        <g id="Grupo_1029390" data-name="Grupo 1029390" transform="translate(22.473 35.957)">
          <path id="Trazado_776806" data-name="Trazado 776806" d="M27,42h8.989v1.8H27Z" transform="translate(-27 -42)" fill="#b5b1a5"/>
        </g>
        <g id="Grupo_1029391" data-name="Grupo 1029391" transform="translate(22.473 39.552)">
          <path id="Trazado_776807" data-name="Trazado 776807" d="M27,46h9.888v1.8H27Z" transform="translate(-27 -46)" fill="#b5b1a5"/>
        </g>
        <g id="Grupo_1029392" data-name="Grupo 1029392" transform="translate(26.968 18.877)">
          <circle id="Elipse_8837" data-name="Elipse 8837" cx="13.5" cy="13.5" r="13.5" transform="translate(0.134 0.224)" fill="#dc3c1c"/>
          <path id="Trazado_776808" data-name="Trazado 776808" d="M45.736,23A13.407,13.407,0,0,0,37.4,25.9,13.471,13.471,0,0,0,56.32,44.82,13.471,13.471,0,0,0,45.736,23Z" transform="translate(-32.253 -23)" fill="#fe502d"/>
          <path id="Trazado_776809" data-name="Trazado 776809" d="M37,39.09l2.7-2.7,3.6,3.6L52.282,31l2.7,2.7L43.292,45.383Z" transform="translate(-32.505 -23.809)" fill="#fff"/>
        </g>
      </g>
      <g id="Grupo_1029394" data-name="Grupo 1029394" transform="translate(1 1)">
        <path id="Trazado_776810" data-name="Trazado 776810" d="M52.238,1H12.686A4.5,4.5,0,0,0,8.191,5.495V49.542H1.9a.9.9,0,0,0-.9.9v1.8a4.5,4.5,0,0,0,4.495,4.495H42.35a4.5,4.5,0,0,0,4.495-4.495V47.914a14.371,14.371,0,0,0,0-27.307V8.191h8.989a.9.9,0,0,0,.9-.9v-1.8A4.5,4.5,0,0,0,52.238,1ZM5.495,54.935a2.7,2.7,0,0,1-2.7-2.7v-.9H34.26v.9a4.476,4.476,0,0,0,.9,2.7ZM54.935,34.26A12.585,12.585,0,1,1,42.35,21.675,12.6,12.6,0,0,1,54.935,34.26ZM42.35,19.877a14.289,14.289,0,0,0-6.948,1.8H27.069v1.8h5.8a14.459,14.459,0,0,0-1.729,1.8H24.372v1.8h5.542a14.387,14.387,0,0,0-.887,1.8H24.372v1.8h4.069a14.3,14.3,0,0,0-.474,3.6h-3.6v1.8h3.721a14.309,14.309,0,0,0,.349,1.8H24.372v1.8h4.655a14.388,14.388,0,0,0,.887,1.8H24.372v1.8h6.769A14.285,14.285,0,0,0,45.047,48.38v3.858a2.7,2.7,0,0,1-2.7,2.7h-3.6a2.7,2.7,0,0,1-2.7-2.7v-1.8a.9.9,0,0,0-.9-.9H9.989V5.495a2.7,2.7,0,0,1,2.7-2.7H45.969a4.448,4.448,0,0,0-.922,2.7V20.14a14.339,14.339,0,0,0-2.7-.262ZM54.935,6.394h-8.09v-.9a2.7,2.7,0,0,1,2.7-2.7h2.7a2.7,2.7,0,0,1,2.7,2.7Z" transform="translate(-1 -1)"/>
        <path id="Trazado_776811" data-name="Trazado 776811" d="M40.231,35.657a.9.9,0,0,0-1.271,0l-2.7,2.7a.9.9,0,0,0,0,1.271l6.292,6.292a.9.9,0,0,0,1.271,0L55.513,34.231a.9.9,0,0,0,0-1.271l-2.7-2.7a.9.9,0,0,0-1.271,0l-8.354,8.354ZM52.181,32.17,53.606,33.6,43.191,44.011,38.17,38.989,39.6,37.563l2.96,2.96a.9.9,0,0,0,1.271,0Z" transform="translate(-4.538 -3.931)"/>
        <path id="Trazado_776812" data-name="Trazado 776812" d="M22.888,9H13.9a.9.9,0,0,0-.9.9v8.989a.9.9,0,0,0,.9.9h8.989a.9.9,0,0,0,.9-.9V9.9A.9.9,0,0,0,22.888,9Zm-.9,8.989H14.8V10.8h7.191Z" transform="translate(-2.213 -1.809)"/>
        <path id="Trazado_776813" data-name="Trazado 776813" d="M30,10H46.181v1.8H30Z" transform="translate(-3.931 -1.91)"/>
        <path id="Trazado_776814" data-name="Trazado 776814" d="M27,14H45.877v1.8H27Z" transform="translate(-3.628 -2.314)"/>
        <path id="Trazado_776815" data-name="Trazado 776815" d="M27,18H45.877v1.8H27Z" transform="translate(-3.628 -2.718)"/>
        <path id="Trazado_776816" data-name="Trazado 776816" d="M22.888,23H13.9a.9.9,0,0,0-.9.9v8.989a.9.9,0,0,0,.9.9h8.989a.9.9,0,0,0,.9-.9V23.9A.9.9,0,0,0,22.888,23Zm-.9,8.989H14.8V24.8h7.191Z" transform="translate(-2.213 -3.224)"/>
        <path id="Trazado_776817" data-name="Trazado 776817" d="M22.888,37H13.9a.9.9,0,0,0-.9.9v8.989a.9.9,0,0,0,.9.9h8.989a.9.9,0,0,0,.9-.9V37.9A.9.9,0,0,0,22.888,37Zm-.9,8.989H14.8V38.8h7.191Z" transform="translate(-2.213 -4.639)"/>
      </g>
    </g>
  </g>
</svg>
