<svg xmlns="http://www.w3.org/2000/svg" width="104" height="104" viewBox="0 0 104 104">
  <g id="Grupo_1029413" data-name="Grupo 1029413" transform="translate(-1199 -2785)">
    <circle id="Elipse_8442" data-name="Elipse 8442" cx="52" cy="52" r="52" transform="translate(1199 2785)" fill="#fff"/>
    <g id="ingresos" transform="translate(1217.533 2803.533)">
      <g id="Grupo_1029397" data-name="Grupo 1029397" transform="translate(2.047 2.047)">
        <circle id="Elipse_8838" data-name="Elipse 8838" cx="12" cy="12" r="12" transform="translate(19.419 19.42)" fill="#ffc239"/>
        <g id="Grupo_1029395" data-name="Grupo 1029395" transform="translate(24.088 21.994)">
          <path id="Trazado_776818" data-name="Trazado 776818" d="M32.189,27.189a2.1,2.1,0,0,1,2.095,2.095h2.095a4.185,4.185,0,0,0-3.142-4.041V23H31.142v2.243a4.18,4.18,0,0,0,1.047,8.23,2.095,2.095,0,1,1-2.095,2.095H28a4.185,4.185,0,0,0,3.142,4.041v2.243h2.095V39.608a4.18,4.18,0,0,0-1.047-8.23,2.095,2.095,0,1,1,0-4.189Z" transform="translate(-24.858 -23)" fill="#ffe693"/>
          <path id="Trazado_776819" data-name="Trazado 776819" d="M25,31h2.095v2.095H25Z" transform="translate(-25 -22.621)" fill="#ffe693"/>
          <path id="Trazado_776820" data-name="Trazado 776820" d="M37,31h2.095v2.095H37Z" transform="translate(-24.432 -22.621)" fill="#ffe693"/>
        </g>
        <path id="Trazado_776821" data-name="Trazado 776821" d="M49.35,45.231a22.006,22.006,0,0,0,0-24.79l7.222-6.111a31.431,31.431,0,0,1,0,37.012Z" transform="translate(0.24 -1.417)" fill="#2d54fe"/>
        <path id="Trazado_776822" data-name="Trazado 776822" d="M15.249,20.441a22.007,22.007,0,0,0,0,24.79L8.025,51.342a31.431,31.431,0,0,1,0-37.012Z" transform="translate(-2 -1.417)" fill="#78b22a"/>
        <g id="Grupo_1029396" data-name="Grupo 1029396" transform="translate(13.615 10.939)">
          <path id="Trazado_776823" data-name="Trazado 776823" d="M31.581,45.034,29.838,46.2l.908,1.363A15.719,15.719,0,0,1,17.095,32H15A17.828,17.828,0,0,0,30.916,49.7l-1.078,1.617,1.743,1.161,2.095-3.142a1.046,1.046,0,0,0,0-1.161Z" transform="translate(-15 -11.52)" fill="#ffd55d"/>
          <path id="Trazado_776824" data-name="Trazado 776824" d="M33.936,15.224l1.078-1.617-1.743-1.161-2.095,3.142a1.046,1.046,0,0,0,0,1.161l2.095,3.142,1.743-1.161-.908-1.363A15.721,15.721,0,0,1,47.757,32.925h2.095A17.828,17.828,0,0,0,33.936,15.224Z" transform="translate(-14.243 -12.445)" fill="#ffd55d"/>
        </g>
        <path id="Trazado_776825" data-name="Trazado 776825" d="M45.231,15.249a22.007,22.007,0,0,0-24.79,0L14.33,8.025a31.433,31.433,0,0,1,37.012,0Z" transform="translate(-1.417 -2)" fill="#fe502d"/>
        <path id="Trazado_776826" data-name="Trazado 776826" d="M20.441,49.35a22.006,22.006,0,0,0,24.79,0l6.111,7.222a31.428,31.428,0,0,1-37.012,0Z" transform="translate(-1.417 0.24)" fill="#ffc239"/>
        <path id="Trazado_776827" data-name="Trazado 776827" d="M32.072,53.173c-.536,0-1.067-.023-1.593-.061A58.356,58.356,0,0,0,44.8,59.893a31.368,31.368,0,0,0,5.776-3.321L44.467,49.35A21.893,21.893,0,0,1,32.072,53.173Z" transform="translate(-0.652 0.24)" fill="#ffd55d"/>
        <path id="Trazado_776828" data-name="Trazado 776828" d="M6.075,17.057a58.221,58.221,0,0,0,5.187,15.01,21.879,21.879,0,0,1,3.793-11.626L7.833,14.33a31.18,31.18,0,0,0-1.758,2.727Z" transform="translate(-1.807 -1.417)" fill="#94d531"/>
        <path id="Trazado_776829" data-name="Trazado 776829" d="M27.066,2.426a52.991,52.991,0,0,0,2.786,9.142,22.335,22.335,0,0,1,2.382-.142,21.893,21.893,0,0,1,12.395,3.823l6.112-7.222a31.453,31.453,0,0,0-23.675-5.6Z" transform="translate(-0.814 -2)" fill="#ff694a"/>
        <path id="Trazado_776830" data-name="Trazado 776830" d="M49.35,20.441a22.026,22.026,0,0,1,3.263,17.333,53.108,53.108,0,0,0,8.725,3.813A31.307,31.307,0,0,0,56.573,14.33Z" transform="translate(0.24 -1.417)" fill="#6380ff"/>
      </g>
      <g id="Grupo_1029398" data-name="Grupo 1029398" transform="translate(1 1)">
        <path id="Trazado_776831" data-name="Trazado 776831" d="M32.568,45.136A12.568,12.568,0,1,0,20,32.568,12.582,12.582,0,0,0,32.568,45.136Zm0-23.041A10.473,10.473,0,1,1,22.095,32.568,10.485,10.485,0,0,1,32.568,22.095Z" transform="translate(-0.101 -0.101)"/>
        <path id="Trazado_776832" data-name="Trazado 776832" d="M32.189,37.662a2.1,2.1,0,0,1-2.095-2.095H28a4.184,4.184,0,0,0,3.142,4.041v2.243h2.095V39.608a4.18,4.18,0,0,0-1.047-8.23,2.095,2.095,0,1,1,2.095-2.095h2.095a4.185,4.185,0,0,0-3.142-4.041V23H31.142v2.243a4.18,4.18,0,0,0,1.047,8.23,2.095,2.095,0,1,1,0,4.189Z" transform="translate(0.278 0.041)"/>
        <path id="Trazado_776833" data-name="Trazado 776833" d="M25,31h2.095v2.095H25Z" transform="translate(0.136 0.419)"/>
        <path id="Trazado_776834" data-name="Trazado 776834" d="M37,31h2.095v2.095H37Z" transform="translate(0.703 0.419)"/>
        <path id="Trazado_776835" data-name="Trazado 776835" d="M56.743,13.337a1.067,1.067,0,0,0-.8.241l-7.222,6.111a1.046,1.046,0,0,0-.189,1.391,20.959,20.959,0,0,1,0,23.608,1.046,1.046,0,0,0,.189,1.391l7.222,6.111a1.048,1.048,0,0,0,.677.247,1.006,1.006,0,0,0,.125-.007,1.052,1.052,0,0,0,.721-.422,32.478,32.478,0,0,0,0-38.248,1.048,1.048,0,0,0-.723-.422ZM56.422,49.85l-5.641-4.774a23.063,23.063,0,0,0,0-24.386l5.641-4.774a30.391,30.391,0,0,1,0,33.933Z" transform="translate(1.24 -0.417)"/>
        <path id="Trazado_776836" data-name="Trazado 776836" d="M7.949,52.429a1.006,1.006,0,0,0,.125.007,1.05,1.05,0,0,0,.677-.247l7.222-6.111a1.046,1.046,0,0,0,.189-1.391,20.959,20.959,0,0,1,0-23.608,1.046,1.046,0,0,0-.189-1.391L8.749,13.578a1.063,1.063,0,0,0-.8-.241,1.048,1.048,0,0,0-.722.422,32.478,32.478,0,0,0,0,38.248,1.052,1.052,0,0,0,.722.422Zm.323-36.513,5.641,4.774a23.065,23.065,0,0,0,0,24.387L8.272,49.85a30.391,30.391,0,0,1,0-33.933Z" transform="translate(-1 -0.417)"/>
        <path id="Trazado_776837" data-name="Trazado 776837" d="M15,32A17.828,17.828,0,0,0,30.916,49.7l-1.078,1.617,1.743,1.161,2.095-3.142a1.046,1.046,0,0,0,0-1.161l-2.095-3.142L29.838,46.2l.908,1.363A15.721,15.721,0,0,1,17.095,32Z" transform="translate(-0.338 0.467)"/>
        <path id="Trazado_776838" data-name="Trazado 776838" d="M33.936,15.224l1.078-1.617-1.743-1.161-2.095,3.142a1.046,1.046,0,0,0,0,1.161l2.095,3.142,1.743-1.161-.908-1.363A15.721,15.721,0,0,1,47.757,32.925h2.095A17.828,17.828,0,0,0,33.936,15.224Z" transform="translate(0.419 -0.458)"/>
        <path id="Trazado_776839" data-name="Trazado 776839" d="M13.337,7.949a1.054,1.054,0,0,0,.24.8l6.111,7.222a1.049,1.049,0,0,0,1.391.189,20.958,20.958,0,0,1,23.609,0,1.049,1.049,0,0,0,1.391-.189L52.19,8.75a1.049,1.049,0,0,0-.182-1.523,32.478,32.478,0,0,0-38.248,0,1.05,1.05,0,0,0-.422.722ZM32.883,3.095A30.131,30.131,0,0,1,49.85,8.272l-4.774,5.642a23.059,23.059,0,0,0-24.387,0L15.917,8.272A30.131,30.131,0,0,1,32.883,3.095Z" transform="translate(-0.417 -1)"/>
        <path id="Trazado_776840" data-name="Trazado 776840" d="M13.337,56.744a1.052,1.052,0,0,0,.422.721,32.476,32.476,0,0,0,38.248,0,1.047,1.047,0,0,0,.182-1.522l-6.111-7.222a1.045,1.045,0,0,0-1.391-.189,20.963,20.963,0,0,1-23.609,0,1.047,1.047,0,0,0-1.391.189l-6.111,7.222a1.049,1.049,0,0,0-.24.8Zm7.352-5.963a23.067,23.067,0,0,0,24.388,0l4.774,5.641a30.393,30.393,0,0,1-33.934,0Z" transform="translate(-0.417 1.24)"/>
      </g>
    </g>
  </g>
</svg>
