<svg xmlns="http://www.w3.org/2000/svg" xmlns:xlink="http://www.w3.org/1999/xlink" width="195" height="195" viewBox="0 0 195 195">
  <defs>
    <radialGradient id="radial-gradient" cx="0.5" cy="0.5" r="0.5" gradientUnits="objectBoundingBox">
      <stop offset="0" stop-color="#fff"/>
      <stop offset="1" stop-color="#e0e0e0"/>
    </radialGradient>
    <filter id="_21" x="0" y="0" width="195" height="195" filterUnits="userSpaceOnUse">
      <feOffset dy="3" input="SourceAlpha"/>
      <feGaussianBlur stdDeviation="3" result="blur"/>
      <feFlood flood-opacity="0.161"/>
      <feComposite operator="in" in2="blur"/>
      <feComposite in="SourceGraphic"/>
    </filter>
  </defs>
  <g id="Grupo_1029416" data-name="Grupo 1029416" transform="translate(5073 10554)">
    <g transform="matrix(1, 0, 0, 1, -5073, -10554)" filter="url(#_21)">
      <g id="_21-2" data-name="21" transform="translate(9 6)" stroke="#fff" stroke-width="3" fill="url(#radial-gradient)">
        <circle cx="88.5" cy="88.5" r="88.5" stroke="none"/>
        <circle cx="88.5" cy="88.5" r="87" fill="none"/>
      </g>
    </g>
    <g id="_010-bookkeeping" data-name="010-bookkeeping" transform="translate(-5031.25 -10513)">
      <g id="Grupo_1029409" data-name="Grupo 1029409" transform="translate(9.751 1.562)">
        <path id="Trazado_776915" data-name="Trazado 776915" d="M81.942,7.5V94.738H133.8a2.02,2.02,0,0,0,2.02-2.02V9.52A2.02,2.02,0,0,0,133.8,7.5Z" transform="translate(-72.059 -7.5)" fill="#e5eef9"/>
        <path id="Trazado_776916" data-name="Trazado 776916" d="M309.636,7.5h-5.622a2.02,2.02,0,0,1,2.02,2.02v83.2a2.02,2.02,0,0,1-2.02,2.02h5.622a2.02,2.02,0,0,0,2.02-2.02V9.52a2.02,2.02,0,0,0-2.02-2.02Z" transform="translate(-247.893 -7.5)" fill="#c4e2ff"/>
        <path id="Trazado_776917" data-name="Trazado 776917" d="M44.358,7.5V94.738H36.495a2.02,2.02,0,0,1-2.02-2.02V9.52a2.02,2.02,0,0,1,2.02-2.02Z" transform="translate(-34.475 -7.5)" fill="#2d54fe"/>
        <path id="Trazado_776918" data-name="Trazado 776918" d="M266.948,250.664v49.121a2.082,2.082,0,0,0,2.082,2.082h44.62a2.082,2.082,0,0,0,2.082-2.082V250.664a2.082,2.082,0,0,0-2.082-2.082H269.03A2.082,2.082,0,0,0,266.948,250.664Z" transform="translate(-218.545 -198.386)" fill="#fe502d"/>
        <path id="Trazado_776919" data-name="Trazado 776919" d="M467.5,248.582H461.25a2.082,2.082,0,0,1,2.082,2.082v49.121a2.082,2.082,0,0,1-2.082,2.082H467.5a2.082,2.082,0,0,0,2.082-2.082V250.664A2.082,2.082,0,0,0,467.5,248.582Z" transform="translate(-372.391 -198.386)" fill="#cc371a"/>
        <path id="Trazado_776920" data-name="Trazado 776920" d="M299.351,350.939v23.885a1.041,1.041,0,0,0,1.041,1.041H333.6a1.041,1.041,0,0,0,1.041-1.041V350.939A1.041,1.041,0,0,0,333.6,349.9H300.392A1.041,1.041,0,0,0,299.351,350.939Z" transform="translate(-244.201 -278.607)" fill="#596c76"/>
        <path id="Trazado_776921" data-name="Trazado 776921" d="M299.351,285.492v-5.983a1.041,1.041,0,0,1,1.041-1.041H333.6a1.041,1.041,0,0,1,1.041,1.041v5.983a1.041,1.041,0,0,1-1.041,1.041H300.392A1.041,1.041,0,0,1,299.351,285.492Z" transform="translate(-244.201 -222.05)" fill="#e5eef9"/>
        <path id="Trazado_776922" data-name="Trazado 776922" d="M149.2,347.343v2.613c0,21.194-3.314,29.674-4.861,29.674s-4.862-8.481-4.862-29.674v-2.613Z" transform="translate(-117.618 -276.584)" fill="#596c76"/>
        <path id="Trazado_776923" data-name="Trazado 776923" d="M153.8,347.343v2.613c0,12.666-1.184,20.79-2.467,25.278.864,3.022,1.773,4.4,2.394,4.4,1.547,0,4.861-8.481,4.861-29.674v-2.613Z" transform="translate(-127.002 -276.584)" fill="#465a61"/>
        <path id="Trazado_776924" data-name="Trazado 776924" d="M152.343,449.307h-7.486c1.107,7.719,2.773,11.057,3.743,11.057S151.236,457.026,152.343,449.307Z" transform="translate(-121.874 -357.318)" fill="#fece85"/>
        <path id="Trazado_776925" data-name="Trazado 776925" d="M151.337,455.966c.864,3.022,1.772,4.4,2.394,4.4.969,0,2.636-3.338,3.743-11.057h-4.789a51,51,0,0,1-1.348,6.659Z" transform="translate(-127.005 -357.318)" fill="#fdb441"/>
        <path id="Trazado_776926" data-name="Trazado 776926" d="M146.151,257.589a.73.73,0,0,0,.73-.73v-.9c0-11.765-1.017-18.979-1.87-22.958-.738-3.442-2-7.546-3.822-7.546s-3.084,4.1-3.822,7.546c-.853,3.98-1.87,11.193-1.87,22.958v.9a.73.73,0,0,0,.73.73h9.925Z" transform="translate(-114.462 -180.078)" fill="#596c76"/>
        <path id="Trazado_776927" data-name="Trazado 776927" d="M157.914,233c-.738-3.442-2-7.546-3.822-7.546-.9,0-1.667,1.007-2.3,2.441a29.144,29.144,0,0,1,1.44,5.1c.807,3.98,1.768,11.193,1.768,22.958v.9a.711.711,0,0,1-.69.73h4.743a.73.73,0,0,0,.73-.73v-.9C159.784,244.2,158.767,236.984,157.914,233Z" transform="translate(-127.365 -180.078)" fill="#465a61"/>
        <path id="Trazado_776928" data-name="Trazado 776928" d="M146.838,352.236h-11.3c-.028,1.3-.044,5-.044,5a.73.73,0,0,0,.73.73h9.925a.73.73,0,0,0,.73-.73S146.866,353.539,146.838,352.236Z" transform="translate(-114.463 -280.458)" fill="#fece85"/>
        <path id="Trazado_776929" data-name="Trazado 776929" d="M169.361,357.239s-.015-3.7-.044-5h-4.781c.027,1.3.041,5,.041,5a.711.711,0,0,1-.69.73h4.743A.729.729,0,0,0,169.361,357.239Z" transform="translate(-136.943 -280.458)" fill="#fdb441"/>
      </g>
      <g id="Grupo_1029410" data-name="Grupo 1029410" transform="translate(3.25 0)">
        <path id="Trazado_776930" data-name="Trazado 776930" d="M171.615,152.913a1.562,1.562,0,0,0,1.562,1.562h13.414a1.562,1.562,0,0,0,0-3.123H173.177A1.562,1.562,0,0,0,171.615,152.913Z" transform="translate(-136.56 -119.838)"/>
        <path id="Trazado_776931" data-name="Trazado 776931" d="M104.857,50.2h-10a1.562,1.562,0,1,0,0,3.123h10a.521.521,0,0,1,.521.521V102.96a.521.521,0,0,1-.521.521H60.237a.521.521,0,0,1-.521-.521V88.808s0-.005,0-.008,0-.005,0-.008V53.839a.521.521,0,0,1,.521-.521H87.569a1.562,1.562,0,1,0,0-3.123H75.076V3.581A3.586,3.586,0,0,0,71.493,0H39.422a1.562,1.562,0,1,0,0,3.123H71.493a.46.46,0,0,1,.46.458V50.2H60.237a3.648,3.648,0,0,0-3.644,3.644v33.4H42.467c.161-2.1.288-4.45.361-7.077a2.287,2.287,0,0,0,.9-1.818c-.023-.5.235-13.236-1.7-23.2H43.58a1.092,1.092,0,0,1,1.079.9,121.393,121.393,0,0,1,1.5,19,1.562,1.562,0,0,0,1.561,1.543h.019a1.562,1.562,0,0,0,1.543-1.58,124.453,124.453,0,0,0-1.547-19.5,4.21,4.21,0,0,0-4.155-3.489H41.316c-1.219-4.573-2.744-6.64-4.839-6.64-2.4,0-4.048,2.708-5.349,8.78-2.152,10.038-1.881,23.726-1.9,24.182a2.287,2.287,0,0,0,.9,1.816c.073,2.627.2,4.978.362,7.078H21.2V3.123H32.135a1.562,1.562,0,0,0,0-3.123H11.771A3.585,3.585,0,0,0,8.19,3.581v7.81H4.812a1.562,1.562,0,0,0,0,3.123H8.19V27.505H4.812a1.562,1.562,0,1,0,0,3.123H8.19V43.619H4.812a1.562,1.562,0,1,0,0,3.123H8.19V59.733H4.812a1.562,1.562,0,0,0,0,3.123H8.19V75.847H4.812a1.562,1.562,0,0,0,0,3.123H8.19v7.81a3.585,3.585,0,0,0,3.581,3.581h19a69.154,69.154,0,0,0,1.389,8.651c1.52,6.415,3.193,7.157,4.32,7.157s2.8-.742,4.32-7.157a71.047,71.047,0,0,0,1.389-8.651H56.593v12.6a3.648,3.648,0,0,0,3.644,3.644h44.62a3.648,3.648,0,0,0,3.644-3.644V53.839a3.648,3.648,0,0,0-3.644-3.644ZM11.313,86.78V78.97H12.7a1.562,1.562,0,1,0,0-3.123H11.313V62.856H12.7a1.562,1.562,0,1,0,0-3.123H11.313V46.742H12.7a1.562,1.562,0,0,0,0-3.123H11.313V30.628H12.7a1.562,1.562,0,1,0,0-3.123H11.313V14.514H12.7a1.562,1.562,0,0,0,0-3.123H11.313V3.581a.459.459,0,0,1,.458-.458h6.3V87.238h-6.3a.459.459,0,0,1-.458-.458Zm21.95-6.145H39.69a110.093,110.093,0,0,1-.829,11.354h-4.77A111.482,111.482,0,0,1,33.262,80.635Zm7.345-3.188v.065H32.347s.006-1.786.017-2.611h8.227c.011.825.017,1.671.017,2.546ZM36.477,48.575c.3.289,1.237,1.4,2.086,5.313,0,.018.009.036.013.054.065.277.131.568.2.873a96.714,96.714,0,0,1,1.75,16.962H32.432a96.7,96.7,0,0,1,1.75-16.962c1-4.656,1.97-5.929,2.3-6.24Zm0,53.73a29.861,29.861,0,0,1-1.927-7.193H38.4a29.848,29.848,0,0,1-1.926,7.193Z" transform="translate(-3.25 0)"/>
        <path id="Trazado_776932" data-name="Trazado 776932" d="M327.663,342.4H294.455a2.605,2.605,0,0,0-2.6,2.6v23.885a2.605,2.605,0,0,0,2.6,2.6h33.208a2.605,2.605,0,0,0,2.6-2.6V345A2.606,2.606,0,0,0,327.663,342.4Zm-20.925,17.236v-5.382h8.64v5.382Zm8.64,3.123v5.608h-8.64v-5.608Zm-20.4-8.5h8.64v5.382h-8.64Zm11.763-3.123v-5.608h8.64v5.608Zm11.763,3.123h8.641v5.382H318.5Zm8.641-3.123H318.5v-5.608h8.641Zm-23.527-5.608v5.608h-8.64v-5.608Zm-8.64,17.236h8.64v5.608h-8.64Zm23.527,5.608v-5.608h8.641v5.608Z" transform="translate(-231.762 -271.107)"/>
        <path id="Trazado_776933" data-name="Trazado 776933" d="M330.266,273.571a2.605,2.605,0,0,0-2.6-2.6H294.455a2.605,2.605,0,0,0-2.6,2.6v5.983a2.605,2.605,0,0,0,2.6,2.6h33.208a2.605,2.605,0,0,0,2.6-2.6Zm-3.123,5.463H294.975v-4.942h32.167Z" transform="translate(-231.762 -214.55)"/>
        <path id="Trazado_776934" data-name="Trazado 776934" d="M190.853,49.388a4.118,4.118,0,0,1-3.026-1.267,1.562,1.562,0,0,0-2.314,2.1,7,7,0,0,0,3.494,2.064v1.049a1.562,1.562,0,1,0,3.123,0v-.964a4.832,4.832,0,0,0,3.835-3.746c.3-1.7-.465-3.915-3.529-5.046l-.533-.2a21.166,21.166,0,0,1-2.753-1.126.574.574,0,0,1-.276-.6,1.24,1.24,0,0,1,.951-1.021,3.94,3.94,0,0,1,3.247.753,1.562,1.562,0,0,0,2-2.4,7.705,7.705,0,0,0-2.944-1.423v-1a1.562,1.562,0,1,0-3.123,0v1.054l-.082.022a4.372,4.372,0,0,0-3.157,3.691A3.666,3.666,0,0,0,187.655,45a23.122,23.122,0,0,0,3.169,1.315l.53.2c.4.147,1.69.7,1.535,1.566A1.964,1.964,0,0,1,190.853,49.388Z" transform="translate(-147.243 -27.713)"/>
      </g>
    </g>
  </g>
</svg>
