<svg xmlns="http://www.w3.org/2000/svg" xmlns:xlink="http://www.w3.org/1999/xlink" width="195" height="195" viewBox="0 0 195 195">
  <defs>
    <radialGradient id="radial-gradient" cx="0.5" cy="0.5" r="0.5" gradientUnits="objectBoundingBox">
      <stop offset="0" stop-color="#fff"/>
      <stop offset="1" stop-color="#e0e0e0"/>
    </radialGradient>
    <filter id="_21" x="0" y="0" width="195" height="195" filterUnits="userSpaceOnUse">
      <feOffset dy="3" input="SourceAlpha"/>
      <feGaussianBlur stdDeviation="3" result="blur"/>
      <feFlood flood-opacity="0.161"/>
      <feComposite operator="in" in2="blur"/>
      <feComposite in="SourceGraphic"/>
    </filter>
  </defs>
  <g id="Grupo_1029413" data-name="Grupo 1029413" transform="translate(-703 -713)">
    <g transform="matrix(1, 0, 0, 1, 703, 713)" filter="url(#_21)">
      <g id="_21-2" data-name="21" transform="translate(9 6)" stroke="#fff" stroke-width="3" fill="url(#radial-gradient)">
        <circle cx="88.5" cy="88.5" r="88.5" stroke="none"/>
        <circle cx="88.5" cy="88.5" r="87" fill="none"/>
      </g>
    </g>
    <g id="devengo" transform="translate(704.623 738.999)">
      <g id="Grupo_1029401" data-name="Grupo 1029401" transform="translate(52.458 17.947)">
        <g id="Grupo_1029400" data-name="Grupo 1029400" transform="translate(19.51 4)">
          <path id="Trazado_776841" data-name="Trazado 776841" d="M149.668,95.644h8.919a.962.962,0,0,1,.96.96v13.731a.962.962,0,0,1-.96.96h-8.919a.962.962,0,0,1-.96-.96V96.6A.962.962,0,0,1,149.668,95.644Z" transform="translate(-148.708 -84.103)" fill="#2d54fe" fill-rule="evenodd"/>
          <path id="Trazado_776842" data-name="Trazado 776842" d="M306.9,43.083h8.919a.962.962,0,0,1,.96.96V69.316a.962.962,0,0,1-.96.96H306.9a.962.962,0,0,1-.96-.96V44.043A.962.962,0,0,1,306.9,43.083Z" transform="translate(-271.412 -43.083)" fill="#2d54fe" fill-rule="evenodd"/>
          <path id="Trazado_776843" data-name="Trazado 776843" d="M228.282,70.049H237.2a.962.962,0,0,1,.96.96V90.361a.962.962,0,0,1-.96.96h-8.919a.962.962,0,0,1-.96-.96V71.009A.962.962,0,0,1,228.282,70.049Z" transform="translate(-210.06 -64.128)" fill="#2d54fe" fill-rule="evenodd"/>
        </g>
        <path id="Trazado_776844" data-name="Trazado 776844" d="M392.876,42.877V32.737a.962.962,0,0,0-.96-.96h-1.447a.96.96,0,0,1-.679-1.639l4.991-4.991a.962.962,0,0,1,1.358,0l4.991,4.991a.96.96,0,0,1-.679,1.639H399a.962.962,0,0,0-.96.96v10.14a.962.962,0,0,1-.96.96h-3.248A.962.962,0,0,1,392.876,42.877Z" transform="translate(-317.122 -24.867)" fill="#fe502d" fill-rule="evenodd"/>
        <path id="Trazado_776845" data-name="Trazado 776845" d="M104.988,140.144h67.88a.962.962,0,0,1,.96.96v31.463a.962.962,0,0,1-.96.96h-67.88a.962.962,0,0,1-.96-.96V141.1A.962.962,0,0,1,104.988,140.144Z" transform="translate(-94.328 -114.832)" fill="#208756" fill-rule="evenodd"/>
        <path id="Trazado_776846" data-name="Trazado 776846" d="M135.221,166.924H203.1a.962.962,0,0,1,.96.96v31.463a.962.962,0,0,1-.96.96h-67.88a.962.962,0,0,1-.96-.96V167.884A.962.962,0,0,1,135.221,166.924Z" transform="translate(-117.923 -135.731)" fill="#27a769" fill-rule="evenodd"/>
        <path id="Trazado_776847" data-name="Trazado 776847" d="M168.1,194.566h45.266a.955.955,0,0,1,.949.814,5.315,5.315,0,0,0,4.435,4.435.955.955,0,0,1,.814.949v8.848a.955.955,0,0,1-.814.949A5.315,5.315,0,0,0,214.315,215a.955.955,0,0,1-.949.814H168.1a.955.955,0,0,1-.949-.814,5.315,5.315,0,0,0-4.435-4.435.955.955,0,0,1-.814-.949v-8.848a.955.955,0,0,1,.814-.949,5.315,5.315,0,0,0,4.435-4.435A.955.955,0,0,1,168.1,194.566Z" transform="translate(-139.495 -157.304)" fill="#8dd0b0" fill-rule="evenodd"/>
        <path id="Trazado_776848" data-name="Trazado 776848" d="M66.77,342.857H60.814a.962.962,0,0,0-.96.96V373.5a.962.962,0,0,0,.96.96H66.77a2.538,2.538,0,0,0,2.527-2.527V345.384A2.538,2.538,0,0,0,66.77,342.857Z" transform="translate(-59.854 -273.034)" fill="#21323c" fill-rule="evenodd"/>
        <path id="Trazado_776849" data-name="Trazado 776849" d="M115.816,378.851v15.283a.953.953,0,0,0,.777.942c7.769,1.511,14.027,6.706,19.414,6.721l25.5.073a.92.92,0,0,0,.483-.129l25-14.431c4.269-2.465.544-8.951-3.741-6.478l-20.78,12-.021.012a1.412,1.412,0,0,1-.738.207l-20.957-.012a1.417,1.417,0,1,1,0-2.834l17.32.009a.96.96,0,0,0,.878-1.35c-2.844-6.41-15.232-4.318-21.778-4.527a1.412,1.412,0,0,1-1.039-.5,14.606,14.606,0,0,0-8.457-5.254,49.839,49.839,0,0,0-10.906-.688A.961.961,0,0,0,115.816,378.851Z" transform="translate(-103.528 -300.368)" fill="#f3a766" fill-rule="evenodd"/>
      </g>
      <path id="Trazado_776850" data-name="Trazado 776850" d="M118.3,374.965a.743.743,0,0,0-.242.042l-.281.1v-1.22l.208,0c2.176-.027,4.365-.047,6.539.052a30.543,30.543,0,0,1,5.271.625,14.725,14.725,0,0,1,8.5,5.28,1.193,1.193,0,0,0,.876.425c1.4.045,2.813-.009,4.21-.055,1.619-.054,3.238-.113,4.858-.109,3.637.008,8.985.266,11.631,3.126a6.22,6.22,0,0,1,1.526,3.036l.052.253h-1.164l.053-.254a.733.733,0,0,0-.053-.451,5.649,5.649,0,0,0-1.021-1.551c-2.563-2.771-7.9-3.008-11.417-3.016-1.628,0-3.256.055-4.883.11-1.418.048-2.854.1-4.272.056a1.626,1.626,0,0,1-1.194-.579,14.426,14.426,0,0,0-8.342-5.184,29.383,29.383,0,0,0-4.858-.6C122.305,374.941,120.3,374.946,118.3,374.965Zm45.2,13.944-20.786-.011a1.2,1.2,0,0,1-1.172-1.431l.123-.616-.47.417a1.628,1.628,0,0,0,1.08,2.846l20.957.012a1.62,1.62,0,0,0,.848-.238l.018-.011,20.778-12a3.292,3.292,0,0,1,3.494-.043,3.923,3.923,0,0,1,1.815,3.11l.007.19.38.024.031-.188a4.253,4.253,0,0,0-1.953-4.189,3.683,3.683,0,0,0-3.9.037l-20.628,11.91a1.19,1.19,0,0,1-.629.179Z" transform="translate(-52.601 -279.283)" fill="#c58753" fill-rule="evenodd"/>
      <path id="Trazado_776851" data-name="Trazado 776851" d="M72.058,368.184a2.715,2.715,0,0,1-.986,2.089l-.742.616.417-.87a2.289,2.289,0,0,0,.225-.991V342.477a2.327,2.327,0,0,0-2.316-2.316H62.7a.755.755,0,0,0-.17.02l-.259.061v-1.109h7.07a2.728,2.728,0,0,1,2.717,2.717v26.335Z" transform="translate(-9.282 -252.179)" fill="#4b5962" fill-rule="evenodd"/>
      <path id="Trazado_776852" data-name="Trazado 776852" d="M60.058,87.163H53.2v31.347h6.859A2.517,2.517,0,0,0,62.565,116V89.67a2.518,2.518,0,0,0-2.507-2.506Zm45.993-15.936v.713a1.515,1.515,0,1,1-3.03,0V71.3h-.714a1.515,1.515,0,1,1,0-3.03h3.007a.677.677,0,0,0,0-1.353c-1.54,0-2.762.142-3.991-1.088a3.708,3.708,0,0,1,1.7-6.209v-.755a1.515,1.515,0,1,1,3.03,0v.639h.9a1.515,1.515,0,1,1,0,3.03h-3.007a.676.676,0,0,0,0,1.353c1.541,0,2.762-.142,3.991,1.088A3.708,3.708,0,0,1,106.052,71.227ZM71.035,41.5H62.82A1.515,1.515,0,0,0,61.3,43.016v33.11a1.515,1.515,0,0,0,1.515,1.515h5.069v4.317A1.515,1.515,0,0,0,69.4,83.473h69.23a1.515,1.515,0,0,0,1.515-1.515V48.848a1.515,1.515,0,0,0-1.515-1.515h-5.069V43.016A1.515,1.515,0,0,0,132.05,41.5H119.057V21.877a1.515,1.515,0,0,0-1.515-1.515h-10.75a1.515,1.515,0,0,0-1.515,1.515V41.5h-3.341V27.75a1.515,1.515,0,0,0-1.515-1.515H89.671a1.515,1.515,0,0,0-1.515,1.515V41.5H84.815V33.325A1.515,1.515,0,0,0,83.3,31.81H72.551a1.515,1.515,0,0,0-1.515,1.515V41.5Zm10.75,0h-7.72V34.839h7.72Zm34.241,0h-7.72V23.392h7.72Zm-17.121,0h-7.72V29.265h7.72Zm27.913-4.775V26.279h-3.171a1.517,1.517,0,0,1-1.061-2.6l7.239-7.239a1.515,1.515,0,0,1,2.142,0l7.249,7.249c1.045,1.045.231,2.586-1.284,2.586h-2.959V36.726a1.515,1.515,0,0,1-1.515,1.515h-5.126a1.515,1.515,0,0,1-1.515-1.515Zm3.03-11.962a1.515,1.515,0,0,0-1.515-1.515h-1.029l3.592-3.592,3.592,3.592H133.46a1.515,1.515,0,0,0-1.515,1.515V35.211h-2.1Zm.686,22.569v-2.8h-66.2v30.08h3.555V48.848A1.515,1.515,0,0,1,69.4,47.333Zm6.584,3.03h-66.2v30.08h66.2Zm-56.428,2.99a1.515,1.515,0,0,0-1.515,1.515,3.752,3.752,0,0,1-3.753,3.753,1.515,1.515,0,0,0-1.515,1.515V70.671a1.515,1.515,0,0,0,1.515,1.515,3.752,3.752,0,0,1,3.753,3.752,1.515,1.515,0,0,0,1.515,1.515h46.655a1.515,1.515,0,0,0,1.515-1.515,3.752,3.752,0,0,1,3.753-3.752,1.515,1.515,0,0,0,1.515-1.515V60.135a1.515,1.515,0,0,0-1.515-1.515,3.752,3.752,0,0,1-3.753-3.753,1.515,1.515,0,0,0-1.515-1.515ZM126,56.383H82.036a6.792,6.792,0,0,1-5.1,5.1v7.845a6.792,6.792,0,0,1,5.1,5.1H126a6.793,6.793,0,0,1,5.1-5.1V61.48A6.792,6.792,0,0,1,126,56.383ZM65.387,94.811v16.9c8.064,1.289,14.506,6.787,20.026,6.8l25.55.073,25.013-14.441c4.234-2.444.539-8.878-3.71-6.425l-20.622,11.906a1.4,1.4,0,0,1-.741.211l-20.786-.011a1.406,1.406,0,0,1,0-2.811l18.474.01c-1.635-7.974-15.113-5.608-22.024-5.83a1.4,1.4,0,0,1-1.031-.5,14.489,14.489,0,0,0-8.388-5.211c-3.123-.7-6.915-.731-11.761-.672Zm-13.6-10.47h8.27a5.341,5.341,0,0,1,5.329,5.329V92c5.018-.061,8.961-.024,12.367.739A16.963,16.963,0,0,1,87.262,98.4c1.1.01,2.39-.036,3.766-.085,7.975-.283,18.727-.664,20.341,8.227l19.487-11.254a6.486,6.486,0,0,1,9.754,4.922,6.128,6.128,0,0,1-3.234,6.373l-25.34,14.63a1.4,1.4,0,0,1-.7.187l-25.923-.074c-6.373-.018-12.519-5.377-20.026-6.757V116a5.341,5.341,0,0,1-5.329,5.329h-8.27a1.411,1.411,0,0,1-1.411-1.411V85.752a1.411,1.411,0,0,1,1.411-1.411Z" fill-rule="evenodd"/>
    </g>
  </g>
</svg>
