<svg xmlns="http://www.w3.org/2000/svg" width="95" height="95" viewBox="0 0 95 95">
  <g id="Grupo_1029332" data-name="Grupo 1029332" transform="translate(9243 9870)">
    <rect id="Rectángulo_361916" data-name="Rectángulo 361916" width="95" height="95" transform="translate(-9243 -9870)" fill="none"/>
    <g id="Grupo_1029327" data-name="Grupo 1029327" transform="translate(1488.5 -36.5)">
      <g id="Color_25_" transform="translate(-10714.368 -9823.368)">
        <g id="Grupo_1029315" data-name="Grupo 1029315" transform="translate(6.037)">
          <path id="Trazado_776770" data-name="Trazado 776770" d="M190.347,82.5h21.41a4.527,4.527,0,0,0,4.527-4.527V12.027A4.527,4.527,0,0,0,211.757,7.5h-25.4L173.5,15.046V74.129Z" transform="translate(-161.653 -7.5)" fill="#4567ff"/>
          <path id="Trazado_776771" data-name="Trazado 776771" d="M119.708,7.5H99.527A4.527,4.527,0,0,0,95,12.027v65.95A4.527,4.527,0,0,0,99.527,82.5h24.166a92.433,92.433,0,0,1-9.83-42.03A94.24,94.24,0,0,1,119.708,7.5Z" transform="translate(-95 -7.5)" fill="#2d54fe"/>
        </g>
        <g id="Grupo_1029316" data-name="Grupo 1029316" transform="translate(19.015 12.979)">
          <path id="Trazado_776772" data-name="Trazado 776772" d="M223.759,121.8A14.34,14.34,0,1,0,216.4,94.089l-5.789,6.225,8,21.484Z" transform="translate(-206.144 -93.5)" fill="#ffdd5c"/>
          <path id="Trazado_776773" data-name="Trazado 776773" d="M188.829,107.564A21.912,21.912,0,0,1,191.258,97.4a14.341,14.341,0,0,0,7.357,27.709C192.888,122.378,188.829,115.553,188.829,107.564Z" transform="translate(-181 -96.811)" fill="#ffca00"/>
        </g>
        <g id="Grupo_1029317" data-name="Grupo 1029317" transform="translate(20.902 47.689)">
          <path id="Trazado_776774" data-name="Trazado 776774" d="M198.782,371.8H193.5v-7.546a.755.755,0,0,1,.755-.755h3.773a.755.755,0,0,1,.755.755Z" transform="translate(-193.5 -357.463)" fill="#fe502d"/>
          <path id="Trazado_776775" data-name="Trazado 776775" d="M263.782,354.819H258.5V344.255a.755.755,0,0,1,.755-.755h3.773a.755.755,0,0,1,.755.755Z" transform="translate(-248.691 -340.482)" fill="#b0c0d2"/>
          <path id="Trazado_776776" data-name="Trazado 776776" d="M328.782,337.837H323.5V324.255a.755.755,0,0,1,.755-.755h3.773a.755.755,0,0,1,.755.755Z" transform="translate(-303.881 -323.5)" fill="#ffca00"/>
        </g>
        <g id="Grupo_1029318" data-name="Grupo 1029318" transform="translate(0 7.546)">
          <path id="Trazado_776777" data-name="Trazado 776777" d="M55,417.518h0a3.018,3.018,0,0,1,3.018-3.018h6.037a3.018,3.018,0,0,1,3.018,3.018h0a3.018,3.018,0,0,1-3.018,3.018H58.018A3.018,3.018,0,0,1,55,417.518Z" transform="translate(-55 -360.623)" fill="#a5b1bd"/>
          <path id="Trazado_776778" data-name="Trazado 776778" d="M55,298.518h0a3.018,3.018,0,0,1,3.018-3.018h6.037a3.018,3.018,0,0,1,3.018,3.018h0a3.018,3.018,0,0,1-3.018,3.018H58.018A3.018,3.018,0,0,1,55,298.518Z" transform="translate(-55 -259.582)" fill="#a5b1bd"/>
          <path id="Trazado_776779" data-name="Trazado 776779" d="M55,179.518h0a3.018,3.018,0,0,1,3.018-3.018h6.037a3.018,3.018,0,0,1,3.018,3.018h0a3.018,3.018,0,0,1-3.018,3.018H58.018A3.018,3.018,0,0,1,55,179.518Z" transform="translate(-55 -158.541)" fill="#a5b1bd"/>
          <path id="Trazado_776780" data-name="Trazado 776780" d="M55,60.518h0A3.018,3.018,0,0,1,58.018,57.5h6.037a3.018,3.018,0,0,1,3.018,3.018h0a3.018,3.018,0,0,1-3.018,3.018H58.018A3.018,3.018,0,0,1,55,60.518Z" transform="translate(-55 -57.5)" fill="#a5b1bd"/>
        </g>
      </g>
      <g id="Lineal_57_" transform="translate(-10715.5 -9824.5)">
        <g id="Grupo_1029319" data-name="Grupo 1029319" transform="translate(0 7.546)">
          <path id="Trazado_776781" data-name="Trazado 776781" d="M51.65,407h6.037a4.15,4.15,0,1,1,0,8.3H51.65a4.15,4.15,0,1,1,0-8.3Zm6.037,6.037a1.886,1.886,0,0,0,0-3.773H51.65a1.886,1.886,0,0,0,0,3.773Z" transform="translate(-47.5 -353.123)"/>
          <path id="Trazado_776782" data-name="Trazado 776782" d="M51.65,288h6.037a4.15,4.15,0,0,1,0,8.3H51.65a4.15,4.15,0,0,1,0-8.3Zm6.037,6.037a1.886,1.886,0,0,0,0-3.773H51.65a1.886,1.886,0,0,0,0,3.773Z" transform="translate(-47.5 -252.082)"/>
          <path id="Trazado_776783" data-name="Trazado 776783" d="M51.65,169h6.037a4.15,4.15,0,1,1,0,8.3H51.65a4.15,4.15,0,1,1,0-8.3Zm6.037,6.037a1.886,1.886,0,1,0,0-3.773H51.65a1.886,1.886,0,1,0,0,3.773Z" transform="translate(-47.5 -151.041)"/>
          <path id="Trazado_776784" data-name="Trazado 776784" d="M51.65,50h6.037a4.15,4.15,0,0,1,0,8.3H51.65a4.15,4.15,0,0,1,0-8.3Zm6.037,6.037a1.886,1.886,0,0,0,0-3.773H51.65a1.886,1.886,0,0,0,0,3.773Z" transform="translate(-47.5 -50)"/>
        </g>
        <g id="Grupo_1029322" data-name="Grupo 1029322" transform="translate(6.037)">
          <g id="Grupo_1029320" data-name="Grupo 1029320" transform="translate(0 14.714)">
            <path id="Línea_139" data-name="Línea 139" d="M-5.236,11.922H-7.5V0h2.264Z" transform="translate(7.5 35.918)"/>
            <path id="Línea_140" data-name="Línea 140" d="M-5.236,11.922H-7.5V0h2.264Z" transform="translate(7.5 17.959)"/>
            <path id="Línea_141" data-name="Línea 141" d="M-5.236,11.922H-7.5V0h2.264Z" transform="translate(7.5)"/>
          </g>
          <g id="Grupo_1029321" data-name="Grupo 1029321">
            <path id="Trazado_776785" data-name="Trazado 776785" d="M246,59.008a1.132,1.132,0,0,1-1.132-1.132V5.659a3.4,3.4,0,0,0-3.4-3.4H209.632a1.132,1.132,0,1,1,0-2.264h31.843a5.666,5.666,0,0,1,5.659,5.659V57.876A1.132,1.132,0,0,1,246,59.008Z" transform="translate(-190.239)"/>
            <path id="Trazado_776786" data-name="Trazado 776786" d="M88.632,9.809A1.132,1.132,0,0,1,87.5,8.678V5.659A5.666,5.666,0,0,1,93.159,0h8.451a1.132,1.132,0,0,1,0,2.264H93.159a3.4,3.4,0,0,0-3.4,3.4V8.678A1.132,1.132,0,0,1,88.632,9.809Z" transform="translate(-87.5)"/>
            <path id="Trazado_776787" data-name="Trazado 776787" d="M138.736,426.242H93.159a5.666,5.666,0,0,1-5.659-5.659v-3.018a1.132,1.132,0,0,1,2.264,0v3.018a3.4,3.4,0,0,0,3.4,3.4h45.576a3.4,3.4,0,0,0,3.4-3.4v-8.451a1.132,1.132,0,1,1,2.264,0v8.451A5.666,5.666,0,0,1,138.736,426.242Z" transform="translate(-87.5 -348.974)"/>
          </g>
        </g>
        <g id="Grupo_1029324" data-name="Grupo 1029324" transform="translate(19.015 47.689)">
          <g id="Grupo_1029323" data-name="Grupo 1029323" transform="translate(1.886)">
            <path id="Trazado_776788" data-name="Trazado 776788" d="M193.546,365.432h-2.264v-7.168h-3.018v7.168H186v-7.546A1.889,1.889,0,0,1,187.886,356h3.773a1.889,1.889,0,0,1,1.886,1.886Z" transform="translate(-186 -349.963)"/>
            <path id="Trazado_776789" data-name="Trazado 776789" d="M258.546,348.451h-2.264V338.264h-3.018v10.187H251V337.886A1.889,1.889,0,0,1,252.886,336h3.773a1.889,1.889,0,0,1,1.886,1.886Z" transform="translate(-241.19 -332.982)"/>
            <path id="Trazado_776790" data-name="Trazado 776790" d="M323.546,331.469h-2.264V318.264h-3.018v13.205H316V317.886A1.889,1.889,0,0,1,317.886,316h3.773a1.889,1.889,0,0,1,1.886,1.886Z" transform="translate(-296.381 -316)"/>
          </g>
          <path id="Línea_142" data-name="Línea 142" d="M22.306-5.236H-6.368A1.132,1.132,0,0,1-7.5-6.368,1.132,1.132,0,0,1-6.368-7.5H22.306a1.132,1.132,0,0,1,1.132,1.132A1.132,1.132,0,0,1,22.306-5.236Z" transform="translate(7.5 21.837)"/>
        </g>
        <g id="Grupo_1029326" data-name="Grupo 1029326" transform="translate(19.015 12.979)">
          <path id="Elipse_8832" data-name="Elipse 8832" d="M7.969-7.5A15.469,15.469,0,1,1-7.5,7.969,15.486,15.486,0,0,1,7.969-7.5Zm0,28.674A13.205,13.205,0,1,0-5.236,7.969,13.22,13.22,0,0,0,7.969,21.174Z" transform="translate(7.5 7.5)"/>
          <g id="Grupo_1029325" data-name="Grupo 1029325" transform="translate(10.564 4.527)">
            <path id="Trazado_776791" data-name="Trazado 776791" d="M248.4,148.355a4.91,4.91,0,0,1-4.9-4.9,1.132,1.132,0,0,1,2.264,0,2.641,2.641,0,1,0,2.641-2.641,4.9,4.9,0,1,1,4.9-4.9,1.132,1.132,0,1,1-2.264,0,2.641,2.641,0,1,0-2.641,2.641,4.9,4.9,0,0,1,0,9.809Z" transform="translate(-243.5 -128.736)"/>
            <path id="Línea_143" data-name="Línea 143" d="M-6.368-2.973A1.132,1.132,0,0,1-7.5-4.1V-6.368A1.132,1.132,0,0,1-6.368-7.5,1.132,1.132,0,0,1-5.236-6.368V-4.1A1.132,1.132,0,0,1-6.368-2.973Z" transform="translate(11.273 7.5)"/>
            <path id="Línea_144" data-name="Línea 144" d="M-6.368-2.973A1.132,1.132,0,0,1-7.5-4.1V-6.368A1.132,1.132,0,0,1-6.368-7.5,1.132,1.132,0,0,1-5.236-6.368V-4.1A1.132,1.132,0,0,1-6.368-2.973Z" transform="translate(11.273 24.855)"/>
          </g>
        </g>
      </g>
    </g>
  </g>
</svg>
